<svg width="20" height="21" viewBox="0 0 20 21" fill="none" xmlns="http://www.w3.org/2000/svg">
<path d="M8.78341 12.6084L7.00841 10.8334L6.12508 11.7167L8.77508 14.3667L13.7751 9.36672L12.8917 8.48338L8.78341 12.6084ZM10.0001 17.1667C8.45298 17.1667 6.96925 16.5521 5.87529 15.4582C4.78133 14.3642 4.16675 12.8805 4.16675 11.3334C4.16675 9.78629 4.78133 8.30256 5.87529 7.20859C6.96925 6.11463 8.45298 5.50005 10.0001 5.50005C11.5472 5.50005 13.0309 6.11463 14.1249 7.20859C15.2188 8.30256 15.8334 9.78629 15.8334 11.3334C15.8334 12.8805 15.2188 14.3642 14.1249 15.4582C13.0309 16.5521 11.5472 17.1667 10.0001 17.1667ZM10.0001 3.83338C8.01096 3.83338 6.1033 4.62356 4.69678 6.03008C3.29026 7.4366 2.50008 9.34426 2.50008 11.3334C2.50008 13.3225 3.29026 15.2302 4.69678 16.6367C6.1033 18.0432 8.01096 18.8334 10.0001 18.8334C11.9892 18.8334 13.8969 18.0432 15.3034 16.6367C16.7099 15.2302 17.5001 13.3225 17.5001 11.3334C17.5001 9.34426 16.7099 7.4366 15.3034 6.03008C13.8969 4.62356 11.9892 3.83338 10.0001 3.83338ZM6.56675 3.32505L5.50008 2.05005L1.66675 5.25838L2.74175 6.53338L6.56675 3.32505ZM18.3334 5.26672L14.5001 2.05005L13.4251 3.32505L17.2584 6.54172L18.3334 5.26672Z" fill="white"/>
</svg>
