<svg width="19" height="18" viewBox="0 0 19 18" fill="none" xmlns="http://www.w3.org/2000/svg">
<path d="M9.3335 15C6.026 15 3.3335 12.3075 3.3335 9C3.3335 5.6925 6.026 3 9.3335 3C12.641 3 15.3335 5.6925 15.3335 9C15.3335 12.3075 12.641 15 9.3335 15ZM9.3335 1.5C5.186 1.5 1.8335 4.8525 1.8335 9C1.8335 13.1475 5.186 16.5 9.3335 16.5C13.481 16.5 16.8335 13.1475 16.8335 9C16.8335 4.8525 13.481 1.5 9.3335 1.5ZM11.276 6L9.3335 7.9425L7.391 6L6.3335 7.0575L8.276 9L6.3335 10.9425L7.391 12L9.3335 10.0575L11.276 12L12.3335 10.9425L10.391 9L12.3335 7.0575L11.276 6Z" fill="black"/>
</svg>
