<?xml version="1.0" encoding="UTF-8"?> <!-- Generator: Adobe Illustrator 24.3.0, SVG Export Plug-In . SVG Version: 6.00 Build 0) --> <svg xmlns="http://www.w3.org/2000/svg" xmlns:xlink="http://www.w3.org/1999/xlink" version="1.1" id="Layer_1" x="0px" y="0px" width="438px" height="136px" viewBox="0 0 438 136" xml:space="preserve"> <g> <path d="M195.476,7.313l-2.392,6.579c-5.642-3.71-11.944-5.661-17.545-5.658c-9.853-0.049-16.726,7.429-16.726,18.703 c0,11.203,6.892,18.757,16.767,18.758c5.592,0,11.941-2.026,17.604-5.76l2.388,6.558c-6.282,4.847-13.771,7.379-20.303,7.38 c-15.533,0-25.784-12.04-25.784-26.937c0-14.999,10.251-27.017,25.784-26.937C181.828,0,189.204,2.491,195.476,7.313z"></path> <path d="M237.679,52.841h-32.782V1.037h9.029v44.285h23.753V52.841z"></path> <path d="M282.723,52.841h-36.121V1.037h35.382v7.519h-26.353v13.398h23.467v7.519h-23.467v15.849h27.092V52.841z"></path> <path d="M330.973,52.841l-4.06-11.09H303.9l-4.059,11.09h-9.669l20.204-51.804h10.06l20.205,51.804H330.973z M324.216,34.232 l-8.81-23.951l-8.81,23.951H324.216z"></path> <path d="M356.883,32.683v20.158h-9.028V1.037h9.028h14.897c8.289,0,15.243,6.291,15.188,15.822c0,7.386-4.119,12.776-9.771,14.867 l12.384,21.114h-10.423l-10.665-20.158L356.883,32.683z M371.384,25.174c3.546,0,6.566-2.945,6.566-8.342 c0.031-5.304-2.992-8.276-6.565-8.276h-14.502v16.618H371.384z"></path> </g> <g> <path d="M205.791,134.466h-11.24l-0.826-4.665c-5.287,3.937-10.908,5.832-16.699,5.83c-16.091,0.003-27.646-13.537-27.667-30.158 c0.021-17.11,12.338-30.651,30.449-30.624c8.426,0.001,16.644,2.985,23.912,8.557l-3.668,10.08 c-6.312-3.92-13.158-6.008-19.122-6.008c-9.439-0.02-16.521,5.86-16.533,17.976c0.013,11.793,6.719,17.68,15.088,17.553 c3.756-0.048,8.11-1.197,12.5-3.439v-7.089h-9.188v-11.71h22.995V134.466z"></path> <path d="M232.132,118.437c0,4.412,1.882,6.223,4.824,6.206c1.035-0.006,2.226-0.267,3.555-0.756l3.165,8.655 c-3.907,1.956-8.09,3.09-11.895,3.088c-7.472,0-13.637-4.238-13.637-14.894V76.018h13.987V118.437z"></path> <path d="M293.99,113.591c0,12.19-9.082,22.043-23.076,22.043c-13.901,0-23.076-9.853-23.076-22.043 c0-12.273,9.175-22.126,23.076-22.043C284.908,91.548,293.99,101.401,293.99,113.591z M270.914,103.171 c-5.647,0-9.083,4.309-9.024,10.421c0,6.113,3.493,10.422,9.024,10.422c5.589,0,9.024-4.251,9.024-10.422 C279.938,107.42,276.503,103.17,270.914,103.171L270.914,103.171z"></path> <path d="M348.092,113.591c0.001,12.274-7.41,22.043-18.098,22.043c-4.545,0-9.107-1.774-13.052-5.339v4.17h-13.987V76.018h13.987 v20.87c3.903-3.52,8.556-5.34,12.81-5.34C340.744,91.485,348.083,101.318,348.092,113.591z M334.051,113.591 c0.039-6.241-2.814-10.64-7.61-10.64c-3,0-6.59,1.419-9.498,4.258v12.764c2.908,2.84,6.498,4.259,9.498,4.259 C331.237,124.232,334.09,119.832,334.051,113.591z"></path> <path d="M400.842,134.465h-13.987v-4.142c-4.085,3.684-8.721,5.311-13.085,5.311c-10.604,0-18.035-9.769-18.035-22.043 c0-12.273,7.432-22.043,18.035-22.043c4.364,0,9,1.628,13.085,5.312v-4.143h13.987V134.465z M386.855,120.006v-12.83 c-2.879-2.815-6.557-4.216-9.395-4.225c-4.687,0.009-7.658,4.16-7.658,10.64s2.782,10.631,7.658,10.641 C380.298,124.222,383.976,122.822,386.855,120.006z"></path> <path d="M425.609,118.437c0,4.412,1.882,6.223,4.824,6.206c1.034-0.006,2.226-0.267,3.555-0.756l3.165,8.655 c-3.907,1.956-8.09,3.09-11.895,3.088c-7.472,0-13.637-4.238-13.637-14.894V76.018h13.987V118.437z"></path> </g> <g> <path fill="#143878" d="M49.567,23.936c6.347,0,11.493-5.325,11.493-11.895c0-6.57-5.146-11.895-11.493-11.895 S38.073,5.471,38.073,12.041C38.073,18.611,43.219,23.936,49.567,23.936z"></path> <path fill="#143878" d="M92.385,128.362c-9.966-20.785-19.151-37.978-30.278-55.04c-1.047-1.606-1.071-3.669-0.055-5.294 c7.307-11.685,12.668-21.957,16.518-30.24c2.36-5.079-4.225-9.532-8.051-5.443c-4.773,5.101-10.33,11.289-16.349,18.455 c-2.061,2.454-5.879,2.31-7.76-0.285C31.92,30.523,18.402,14.587,8.6,3.737C4.908-0.349-1.672,3.784,0.392,8.889 c6.015,14.88,16.413,36.608,33.563,62.285c1.138,1.704,1.095,3.943-0.111,5.6C23.173,91.437,12.19,108.33,2.228,127.016 c-2.655,4.979,3.844,9.789,7.825,5.79c13.073-13.132,24.04-25.871,33.222-37.817c1.961-2.551,5.815-2.553,7.778-0.003 c10.037,13.043,19.774,24.826,33.351,38.933C88.283,137.951,94.804,133.407,92.385,128.362z"></path> </g> <g> </g> <g> </g> <g> </g> <g> </g> <g> </g> <g> </g> <g> </g> <g> </g> <g> </g> <g> </g> <g> </g> <g> </g> <g> </g> <g> </g> <g> </g> </svg> 