<svg width="18" height="18" viewBox="0 0 18 18" fill="none" xmlns="http://www.w3.org/2000/svg">
<path fill-rule="evenodd" clip-rule="evenodd" d="M11.2539 1.5C11.5172 1.50001 11.7759 1.56932 12.0039 1.70097C12.2319 1.83262 12.4213 2.02198 12.5529 2.25H13.5039C13.9017 2.25 14.2833 2.40804 14.5646 2.68934C14.8459 2.97064 15.0039 3.35218 15.0039 3.75V12.75C15.0039 13.7446 14.6088 14.6984 13.9056 15.4017C13.2023 16.1049 12.2485 16.5 11.2539 16.5H4.50391C4.10608 16.5 3.72455 16.342 3.44325 16.0607C3.16194 15.7794 3.00391 15.3978 3.00391 15V3.75C3.00391 3.35218 3.16194 2.97064 3.44325 2.68934C3.72455 2.40804 4.10608 2.25 4.50391 2.25H5.45491C5.58656 2.02198 5.77591 1.83262 6.00393 1.70097C6.23195 1.56932 6.49061 1.50001 6.75391 1.5H11.2539ZM11.1219 7.03425L7.94041 10.2165L6.87916 9.15525C6.7377 9.01863 6.54825 8.94304 6.35161 8.94474C6.15496 8.94645 5.96685 9.02533 5.82779 9.16439C5.68874 9.30344 5.60986 9.49155 5.60815 9.6882C5.60644 9.88485 5.68204 10.0743 5.81866 10.2157L7.35616 11.754C7.43277 11.8306 7.52373 11.8915 7.62385 11.9329C7.72397 11.9744 7.83128 11.9958 7.93966 11.9958C8.04803 11.9958 8.15534 11.9744 8.25546 11.9329C8.35558 11.8915 8.44654 11.8306 8.52316 11.754L12.1832 8.09475C12.2528 8.02507 12.308 7.94235 12.3457 7.85133C12.3833 7.7603 12.4027 7.66275 12.4027 7.56423C12.4026 7.46572 12.3832 7.36818 12.3455 7.27718C12.3077 7.18618 12.2525 7.10351 12.1828 7.03387C12.1131 6.96424 12.0304 6.90902 11.9394 6.87135C11.8483 6.83368 11.7508 6.81431 11.6523 6.81435C11.5538 6.81438 11.4562 6.83382 11.3652 6.87155C11.2742 6.90928 11.1915 6.96457 11.1219 7.03425ZM10.8789 3H7.12891C7.04114 2.99997 6.95614 3.03073 6.88871 3.08692C6.82129 3.14311 6.7757 3.22116 6.75991 3.3075L6.75391 3.375V4.125C6.75388 4.21277 6.78464 4.29777 6.84082 4.36519C6.89701 4.43262 6.97507 4.4782 7.06141 4.494L7.12891 4.5H10.8789C10.9667 4.50003 11.0517 4.46927 11.1191 4.41308C11.1865 4.35689 11.2321 4.27884 11.2479 4.1925L11.2539 4.125V3.375C11.2539 3.28723 11.2232 3.20223 11.167 3.13481C11.1108 3.06738 11.0327 3.0218 10.9464 3.006L10.8789 3Z" fill="white"/>
</svg>
