<svg width="18" height="19" viewBox="0 0 18 19" fill="none" xmlns="http://www.w3.org/2000/svg">
<path d="M14.25 2C14.6478 2 15.0294 2.15804 15.3107 2.43934C15.592 2.72064 15.75 3.10218 15.75 3.5V12.5C15.75 12.8978 15.592 13.2794 15.3107 13.5607C15.0294 13.842 14.6478 14 14.25 14H12.75V15.5C12.75 15.8978 12.592 16.2794 12.3107 16.5607C12.0294 16.842 11.6478 17 11.25 17H3.75C3.35218 17 2.97064 16.842 2.68934 16.5607C2.40804 16.2794 2.25 15.8978 2.25 15.5V6.5C2.25 6.10218 2.40804 5.72064 2.68934 5.43934C2.97064 5.15804 3.35218 5 3.75 5H5.25V3.5C5.25 3.10218 5.40804 2.72064 5.68934 2.43934C5.97064 2.15804 6.35218 2 6.75 2H14.25ZM7.5 11.75H6C5.80884 11.7502 5.62498 11.8234 5.48597 11.9546C5.34697 12.0859 5.26332 12.2652 5.25212 12.456C5.24092 12.6469 5.30301 12.8348 5.4257 12.9814C5.54839 13.128 5.72243 13.2222 5.91225 13.2448L6 13.25H7.5C7.69116 13.2498 7.87502 13.1766 8.01403 13.0454C8.15303 12.9141 8.23668 12.7348 8.24788 12.544C8.25908 12.3531 8.19699 12.1652 8.0743 12.0186C7.95161 11.872 7.77757 11.7778 7.58775 11.7552L7.5 11.75ZM14.25 3.5H6.75V5H11.25C11.6478 5 12.0294 5.15804 12.3107 5.43934C12.592 5.72064 12.75 6.10218 12.75 6.5V12.5H14.25V3.5ZM9 8.75H6C5.80109 8.75 5.61032 8.82902 5.46967 8.96967C5.32902 9.11032 5.25 9.30109 5.25 9.5C5.25 9.69891 5.32902 9.88968 5.46967 10.0303C5.61032 10.171 5.80109 10.25 6 10.25H9C9.19891 10.25 9.38968 10.171 9.53033 10.0303C9.67098 9.88968 9.75 9.69891 9.75 9.5C9.75 9.30109 9.67098 9.11032 9.53033 8.96967C9.38968 8.82902 9.19891 8.75 9 8.75Z" fill="#E8991C"/>
</svg>
