<svg width="16" height="16" viewBox="0 0 16 16" fill="none" xmlns="http://www.w3.org/2000/svg">
<path d="M15.4918 7.0422L12.3207 9.8097L13.2706 13.93C13.3209 14.1454 13.3066 14.3708 13.2294 14.5781C13.1522 14.7854 13.0157 14.9654 12.8368 15.0955C12.6579 15.2256 12.4447 15.3001 12.2237 15.3096C12.0027 15.3192 11.7838 15.2634 11.5944 15.1492L8.00072 12.9695L4.41478 15.1492C4.22534 15.2634 4.00644 15.3192 3.78547 15.3096C3.56449 15.3001 3.35123 15.2256 3.17236 15.0955C2.99348 14.9654 2.85693 14.7854 2.77977 14.5781C2.70261 14.3708 2.68826 14.1454 2.73853 13.93L3.68705 9.81392L0.51525 7.0422C0.34749 6.89752 0.226183 6.70652 0.166539 6.49317C0.106896 6.27981 0.111572 6.0536 0.17998 5.84289C0.248389 5.63218 0.377485 5.44636 0.55108 5.30873C0.724675 5.1711 0.935041 5.08779 1.1558 5.06923L5.33658 4.70712L6.96853 0.814625C7.05375 0.610379 7.1975 0.435913 7.38168 0.313197C7.56585 0.190481 7.78222 0.125 8.00353 0.125C8.22484 0.125 8.44121 0.190481 8.62539 0.313197C8.80956 0.435913 8.95331 0.610379 9.03853 0.814625L10.6754 4.70712L14.8548 5.06923C15.0755 5.08779 15.2859 5.1711 15.4595 5.30873C15.6331 5.44636 15.7622 5.63218 15.8306 5.84289C15.899 6.0536 15.9037 6.27981 15.844 6.49317C15.7844 6.70652 15.6631 6.89752 15.4953 7.0422H15.4918Z" fill="white"/>
</svg>
