<svg width="18" height="18" viewBox="0 0 18 18" fill="none" xmlns="http://www.w3.org/2000/svg">
<path fill-rule="evenodd" clip-rule="evenodd" d="M8.99906 4.50098C8.99887 3.79816 9.16333 3.10506 9.47923 2.47723C9.79514 1.8494 10.2537 1.3043 10.8182 0.88561C11.3827 0.466919 12.0375 0.186281 12.7299 0.0661828C13.4224 -0.053915 14.1334 -0.0101324 14.806 0.194022C14.9122 0.226223 15.0084 0.285415 15.085 0.365829C15.1616 0.446242 15.2161 0.545133 15.2431 0.652862C15.2701 0.760591 15.2688 0.873483 15.2392 0.980533C15.2096 1.08758 15.1527 1.18514 15.0742 1.26369L12.2286 4.10843C12.2836 4.53023 12.4766 4.92199 12.7775 5.22262C13.0785 5.52324 13.4704 5.71583 13.8923 5.77036L16.7362 2.92562C16.8147 2.8471 16.9123 2.79028 17.0193 2.76068C17.1264 2.73109 17.2393 2.72973 17.347 2.75675C17.4547 2.78377 17.5536 2.83824 17.634 2.91485C17.7144 2.99146 17.7736 3.0876 17.8058 3.1939C18.0194 3.89745 18.0574 4.64264 17.9163 5.36426C17.7753 6.08588 17.4596 6.76194 16.9968 7.33331C16.534 7.90467 15.9383 8.35394 15.2617 8.64179C14.5851 8.92964 13.8483 9.04731 13.1157 8.98451C12.2432 8.9108 11.513 9.07022 11.1367 9.52791L5.00837 16.9719C4.75744 17.2751 4.44596 17.5226 4.09387 17.6985C3.74179 17.8743 3.35685 17.9748 2.96371 17.9933C2.57057 18.0118 2.17789 17.948 1.81082 17.806C1.44376 17.664 1.11038 17.447 0.832054 17.1687C0.553724 16.8904 0.336571 16.5571 0.1945 16.1901C0.0524281 15.823 -0.0114309 15.4304 0.00701151 15.0372C0.0254539 14.6441 0.125791 14.2591 0.301599 13.907C0.477407 13.5549 0.72481 13.2433 1.02797 12.9923L8.47108 6.86317C8.92792 6.48604 9.0882 5.75664 9.01449 4.88411C9.00399 4.75667 8.99885 4.62885 8.99906 4.50098ZM2.24249 15.1077C2.24249 14.9372 2.31021 14.7737 2.43077 14.6531C2.55132 14.5326 2.71483 14.4648 2.88532 14.4648H2.89217C3.06266 14.4648 3.22617 14.5326 3.34672 14.6531C3.46728 14.7737 3.535 14.9372 3.535 15.1077V15.1145C3.535 15.285 3.46728 15.4485 3.34672 15.5691C3.22617 15.6896 3.06266 15.7574 2.89217 15.7574H2.88532C2.71483 15.7574 2.55132 15.6896 2.43077 15.5691C2.31021 15.4485 2.24249 15.285 2.24249 15.1145V15.1077Z" fill="white"/>
<path d="M7.34921 6.12121L5.46272 4.23558V2.89335C5.46271 2.78237 5.43397 2.67328 5.3793 2.57671C5.32463 2.48013 5.24588 2.39935 5.15073 2.34223L1.93658 0.413742C1.81365 0.340049 1.66961 0.309555 1.52736 0.327103C1.38511 0.344651 1.25281 0.409236 1.15147 0.510595L0.508642 1.15342C0.407283 1.25476 0.342698 1.38707 0.32515 1.52932C0.307601 1.67157 0.338096 1.8156 0.411789 1.93853L2.34028 5.15268C2.3974 5.24784 2.47817 5.32658 2.57475 5.38125C2.67133 5.43593 2.78042 5.46466 2.8914 5.46467H4.23191L5.99927 7.23202L7.34921 6.12121Z" fill="white"/>
<path fill-rule="evenodd" clip-rule="evenodd" d="M9.47656 13.5688L13.0618 17.1532C13.3305 17.4218 13.6493 17.6349 14.0003 17.7803C14.3513 17.9256 14.7274 18.0005 15.1073 18.0005C15.4872 18.0005 15.8634 17.9256 16.2143 17.7803C16.5653 17.6349 16.8842 17.4218 17.1528 17.1532C17.4214 16.8846 17.6345 16.5657 17.7799 16.2147C17.9253 15.8638 18.0001 15.4876 18.0001 15.1077C18.0001 14.7278 17.9253 14.3517 17.7799 14.0007C17.6345 13.6497 17.4214 13.3308 17.1528 13.0622L14.3192 10.2295C13.8849 10.2911 13.445 10.3034 13.0078 10.2663C12.6701 10.2372 12.4233 10.2612 12.2647 10.3023C12.2146 10.313 12.1663 10.3312 12.1216 10.3563L9.47656 13.5688ZM12.4027 12.4031C12.5233 12.2827 12.6866 12.2151 12.857 12.2151C13.0273 12.2151 13.1907 12.2827 13.3113 12.4031L14.9183 14.011C14.9815 14.0699 15.0321 14.1409 15.0673 14.2197C15.1024 14.2986 15.1213 14.3837 15.1228 14.47C15.1244 14.5563 15.1085 14.6421 15.0761 14.7221C15.0438 14.8021 14.9957 14.8749 14.9346 14.9359C14.8736 14.9969 14.8009 15.0451 14.7209 15.0774C14.6408 15.1097 14.5551 15.1256 14.4688 15.1241C14.3824 15.1226 14.2973 15.1037 14.2185 15.0685C14.1396 15.0334 14.0686 14.9827 14.0098 14.9196L12.4027 13.3125C12.2823 13.192 12.2147 13.0286 12.2147 12.8582C12.2147 12.6879 12.2823 12.5245 12.4027 12.404" fill="white"/>
</svg>
