<svg width="20" height="21" viewBox="0 0 20 21" fill="none" xmlns="http://www.w3.org/2000/svg">
<g clip-path="url(#clip0_1484_11324)">
<path fill-rule="evenodd" clip-rule="evenodd" d="M4.16667 2.16663C3.72464 2.16663 3.30072 2.34222 2.98816 2.65478C2.67559 2.96734 2.5 3.39127 2.5 3.83329V16.3333C2.5 16.7753 2.67559 17.1992 2.98816 17.5118C3.30072 17.8244 3.72464 18 4.16667 18H6.66667V16.3333H4.16667V3.83329H14.1667V7.16663H15.8333V3.83329C15.8333 3.39127 15.6577 2.96734 15.3452 2.65478C15.0326 2.34222 14.6087 2.16663 14.1667 2.16663H4.16667ZM6.66667 6.33329C6.44565 6.33329 6.23369 6.42109 6.07741 6.57737C5.92113 6.73365 5.83333 6.94561 5.83333 7.16663C5.83333 7.38764 5.92113 7.5996 6.07741 7.75588C6.23369 7.91216 6.44565 7.99996 6.66667 7.99996H10C10.221 7.99996 10.433 7.91216 10.5893 7.75588C10.7455 7.5996 10.8333 7.38764 10.8333 7.16663C10.8333 6.94561 10.7455 6.73365 10.5893 6.57737C10.433 6.42109 10.221 6.33329 10 6.33329H6.66667ZM13.2908 9.50913C13.761 9.04665 14.3949 8.78869 15.0544 8.79146C15.7139 8.79422 16.3456 9.05747 16.8119 9.52388C17.2782 9.99028 17.5413 10.622 17.5439 11.2816C17.5465 11.9411 17.2884 12.5749 16.8258 13.045L12.1125 17.7591C11.9563 17.9154 11.7443 18.0032 11.5233 18.0033H9.16583C8.94482 18.0033 8.73286 17.9155 8.57658 17.7592C8.4203 17.6029 8.3325 17.391 8.3325 17.17V14.8125C8.33255 14.5915 8.42038 14.3795 8.57667 14.2233L13.2908 9.50913ZM15.6475 10.6875C15.4912 10.5312 15.2793 10.4435 15.0583 10.4435C14.8374 10.4435 14.6254 10.5312 14.4692 10.6875L15.6475 11.8666C15.725 11.7892 15.7864 11.6973 15.8284 11.5962C15.8703 11.495 15.8919 11.3866 15.8919 11.277C15.8919 11.1675 15.8703 11.0591 15.8284 10.9579C15.7864 10.8568 15.725 10.7649 15.6475 10.6875ZM14.4692 13.045L13.2908 11.8666L9.99917 15.1583V16.3366H11.1775L14.4692 13.045Z" fill="white"/>
</g>
<defs>
<clipPath id="clip0_1484_11324">
<rect width="20" height="20" fill="white" transform="translate(0 0.5)"/>
</clipPath>
</defs>
</svg>
