<svg width="16" height="13" viewBox="0 0 16 13" fill="none" xmlns="http://www.w3.org/2000/svg">
<path d="M14 0.5H2C1.175 0.5 0.5 1.175 0.5 2V11C0.5 11.825 1.175 12.5 2 12.5H14C14.825 12.5 15.5 11.825 15.5 11V2C15.5 1.175 14.825 0.5 14 0.5ZM13.7 3.6875L8.795 6.755C8.3075 7.0625 7.6925 7.0625 7.205 6.755L2.3 3.6875C2.2248 3.64528 2.15894 3.58825 2.10642 3.51984C2.05389 3.45143 2.0158 3.37308 1.99443 3.28953C1.97307 3.20597 1.96888 3.11895 1.98212 3.03373C1.99536 2.94851 2.02575 2.86686 2.07146 2.79373C2.11717 2.72059 2.17724 2.65749 2.24804 2.60825C2.31885 2.559 2.3989 2.52463 2.48337 2.50722C2.56784 2.48981 2.65496 2.48973 2.73947 2.50696C2.82397 2.5242 2.9041 2.5584 2.975 2.6075L8 5.75L13.025 2.6075C13.0959 2.5584 13.176 2.5242 13.2605 2.50696C13.345 2.48973 13.4322 2.48981 13.5166 2.50722C13.6011 2.52463 13.6812 2.559 13.752 2.60825C13.8228 2.65749 13.8828 2.72059 13.9285 2.79373C13.9742 2.86686 14.0046 2.94851 14.0179 3.03373C14.0311 3.11895 14.0269 3.20597 14.0056 3.28953C13.9842 3.37308 13.9461 3.45143 13.8936 3.51984C13.8411 3.58825 13.7752 3.64528 13.7 3.6875Z" fill="#E9981D"/>
</svg>
