<svg width="24" height="24" viewBox="0 0 24 24" fill="none" xmlns="http://www.w3.org/2000/svg">
<path d="M24 12.0743C24 5.40402 18.6248 0 12 0C5.37075 0 0 5.40402 0 12.0743C0 18.0994 4.38675 23.0952 10.125 24V15.5653H7.07775V12.0751H10.125V9.41345C10.125 6.38808 11.9138 4.71729 14.6558 4.71729C15.969 4.71729 17.3438 4.95274 17.3438 4.95274V7.92378H15.828C14.34 7.92378 13.875 8.85577 13.875 9.8104V12.0743H17.2028L16.668 15.5646H13.875V23.9992C19.6087 23.0944 24 18.0987 24 12.0736V12.0743Z" fill="white"/>
</svg>
