<svg width="368" height="195" viewBox="0 0 368 195" fill="none" xmlns="http://www.w3.org/2000/svg">
<g style="mix-blend-mode:multiply">
<path d="M275.528 49.5267C326.795 50.073 367.892 69.2558 367.345 90.6671C367.04 102.623 353.809 112.98 333.259 119.572C314.866 127.991 313.514 139.671 327.239 150.979C307.924 144.063 299.173 134.564 296.797 126.432C289.353 127.042 281.562 127.267 273.544 127.062C222.288 125.751 180.937 108.298 181.784 86.8959C182.525 68.283 222.667 48.9623 275.526 49.5267H275.528Z" fill="#6FC1EB"/>
</g>
<g style="mix-blend-mode:multiply">
<path d="M155.592 2.15065C118.902 2.13069 89.6124 22.8179 90.1423 46.4743C90.44 59.6826 99.9751 71.2867 114.728 78.8164C127.947 88.3406 128.991 101.257 119.241 113.579C133.021 106.175 139.223 95.7905 140.871 86.8379C146.202 87.602 151.779 87.945 157.518 87.8161C194.196 86.9922 223.679 68.2178 222.932 44.5687C222.28 23.9994 193.423 2.17061 155.592 2.15246V2.15065Z" fill="#B24AAF"/>
</g>
<g style="mix-blend-mode:multiply">
<path d="M218.034 0H323.231C327.588 0 331.122 3.53348 331.122 7.8927V55.8732C331.122 60.2324 327.588 63.7659 323.229 63.7659H234.736C233.537 69.9545 226.735 78.2882 212.84 78.9669C219.706 75.5859 222.945 70.2158 221.669 63.7659H218.034C213.675 63.7659 210.142 60.2324 210.142 55.8732V7.8927C210.142 3.53348 213.675 0 218.034 0Z" fill="#B1D254"/>
</g>
<g style="mix-blend-mode:multiply">
<path d="M124.044 161.997L117.752 115.842C117.011 110.418 110.663 107.997 104.106 110.107L56.5337 125.428C53.7534 126.323 51.4866 129.682 51.3306 133.029L50.0747 159.885C49.8914 163.799 52.0728 167.276 55.1181 167.601L61.9328 168.325C66.3102 177.737 72.8799 192.608 72.8799 192.608L69.7184 169.153L110.434 173.48C118.572 174.343 125.018 169.138 124.045 161.997H124.044Z" fill="#4084C5"/>
</g>
<g style="mix-blend-mode:multiply">
<path d="M199.364 164.857C190.122 164.857 182.631 170.222 182.631 176.841C182.631 183.459 190.121 188.822 199.364 188.822C208.607 188.822 216.095 183.459 216.095 176.841C216.095 170.222 208.603 164.857 199.364 164.857Z" fill="#EF4F54"/>
<path d="M180.673 185.702C177.089 185.702 174.181 187.782 174.181 190.35C174.181 192.918 177.089 195 180.673 195C184.257 195 187.164 192.918 187.164 190.35C187.164 187.782 184.257 185.702 180.673 185.702Z" fill="#EF4F54"/>
<path d="M282.642 133.907C282.642 152.685 261.167 167.91 234.678 167.91C208.189 167.91 186.716 152.687 186.716 133.907C186.716 115.127 208.189 99.9043 234.678 99.9043C261.167 99.9043 282.642 115.127 282.642 133.907Z" fill="#EF4F54"/>
<path style="mix-blend-mode:multiply" opacity="0.95" d="M199.364 164.857C190.122 164.857 182.631 170.222 182.631 176.841C182.631 183.459 190.121 188.822 199.364 188.822C208.607 188.822 216.095 183.459 216.095 176.841C216.095 170.222 208.603 164.857 199.364 164.857Z" fill="url(#paint0_linear_1335_12940)"/>
<path style="mix-blend-mode:multiply" opacity="0.95" d="M180.673 185.702C177.089 185.702 174.181 187.782 174.181 190.35C174.181 192.918 177.089 195 180.673 195C184.257 195 187.164 192.918 187.164 190.35C187.164 187.782 184.257 185.702 180.673 185.702Z" fill="url(#paint1_linear_1335_12940)"/>
<path style="mix-blend-mode:multiply" opacity="0.95" d="M282.642 133.907C282.642 152.685 261.167 167.91 234.678 167.91C208.189 167.91 186.716 152.687 186.716 133.907C186.716 115.127 208.189 99.9043 234.678 99.9043C261.167 99.9043 282.642 115.127 282.642 133.907Z" fill="url(#paint2_linear_1335_12940)"/>
</g>
<g style="mix-blend-mode:multiply">
<path d="M198.236 133.047C206.517 108.561 192.768 81.789 167.522 73.2502C142.276 64.7114 115.099 77.6385 106.816 102.124C99.5058 123.737 109.368 147.121 129.142 158.186C129.663 158.707 129.456 173.968 129.456 173.968L142.499 163.317C166.248 168.714 190.496 155.93 198.238 133.045L198.236 133.047Z" fill="#ECBF1D"/>
</g>
<g style="mix-blend-mode:multiply">
<path d="M0.194254 93.5146C4.44277 140.916 94.0501 109.325 69.3865 135.287C105.81 129.377 127.77 103.46 123.645 75.3826C119.519 47.3054 88.5421 28.6035 54.4523 33.6106C20.3643 38.6178 -2.34107 65.2359 0.194254 93.5146Z" fill="#F37C24"/>
</g>
<path d="M248.598 35.3239H241.29V43.1204H235.112V22.7253H241.29V29.9411H248.598V22.7253H254.774V43.1204H248.598V35.3239Z" fill="white"/>
<path d="M266.213 41.7137C265.387 42.7536 263.583 43.4868 261.748 43.4868C259.547 43.4868 256.672 41.9877 256.672 38.6248C256.672 34.9552 259.547 34.0678 261.748 34.0678C263.674 34.0678 265.418 34.6794 266.213 35.6884V34.0061C266.213 32.9662 265.266 32.1713 263.462 32.1713C262.086 32.1713 260.525 32.7212 259.364 33.6086L257.498 30.2149C259.485 28.6251 262.238 27.9827 264.469 27.9827C268.138 27.9827 271.715 29.2676 271.715 34.1894V43.1184H266.211V41.7119L266.213 41.7137ZM266.213 38.2891C265.846 37.7701 264.899 37.4942 264.042 37.4942C263.126 37.4942 262.117 37.8009 262.117 38.7174C262.117 39.6339 263.126 39.9097 264.042 39.9097C264.899 39.9097 265.846 39.6339 266.213 39.1148V38.2891Z" fill="white"/>
<path d="M274.222 22.7253H279.726V43.1204H274.222V22.7253Z" fill="white"/>
<path d="M282.221 22.7253H287.726V43.1204H282.221V22.7253Z" fill="white"/>
<path d="M289.325 35.7212C289.325 31.5925 292.383 27.9846 297.611 27.9846C302.84 27.9846 305.929 31.5925 305.929 35.7212C305.929 39.85 302.871 43.4887 297.611 43.4887C292.352 43.4887 289.325 39.85 289.325 35.7212ZM300.272 35.7212C300.272 34.1006 299.324 32.8466 297.611 32.8466C295.898 32.8466 294.982 34.1006 294.982 35.7212C294.982 37.3419 295.929 38.6268 297.611 38.6268C299.294 38.6268 300.272 37.3727 300.272 35.7212Z" fill="white"/>
<path d="M204.282 134.7C204.282 128.798 208.81 124.815 214.654 124.815C219.812 124.815 222.333 127.737 223.48 130.374L218.494 132.695C218.008 131.205 216.518 129.916 214.654 129.916C212.019 129.916 210.155 132.036 210.155 134.702C210.155 137.368 212.017 139.488 214.654 139.488C216.516 139.488 218.006 138.198 218.494 136.708L223.48 139C222.362 141.549 219.812 144.588 214.654 144.588C208.808 144.588 204.282 140.577 204.282 134.702V134.7Z" fill="white"/>
<path d="M224.297 126.077C224.297 124.472 225.586 123.182 227.192 123.182C228.798 123.182 230.087 124.472 230.087 126.077C230.087 127.681 228.798 128.971 227.192 128.971C225.586 128.971 224.297 127.681 224.297 126.077ZM224.613 130.403H229.771V144.243H224.613V130.403Z" fill="white"/>
<path d="M240.172 142.925C239.399 143.9 237.707 144.588 235.989 144.588C233.925 144.588 231.232 143.183 231.232 140.032C231.232 136.593 233.925 135.764 235.989 135.764C237.794 135.764 239.428 136.337 240.172 137.283V135.708C240.172 134.733 239.283 133.989 237.593 133.989C236.304 133.989 234.842 134.504 233.755 135.336L232.007 132.156C233.869 130.666 236.448 130.063 238.54 130.063C241.979 130.063 245.331 131.267 245.331 135.88V144.246H240.174V142.929L240.172 142.925ZM240.172 139.717C239.829 139.23 238.94 138.972 238.137 138.972C237.277 138.972 236.332 139.259 236.332 140.119C236.332 140.98 237.277 141.237 238.137 141.237C238.94 141.237 239.829 140.98 240.172 140.492V139.718V139.717Z" fill="white"/>
<path d="M246.709 137.308C246.709 133.441 249.575 130.06 254.473 130.06C259.372 130.06 262.266 133.441 262.266 137.308C262.266 141.176 259.401 144.586 254.473 144.586C249.546 144.586 246.709 141.176 246.709 137.308ZM256.967 137.308C256.967 135.789 256.079 134.615 254.473 134.615C252.867 134.615 252.009 135.789 252.009 137.308C252.009 138.827 252.898 140.03 254.473 140.03C256.049 140.03 256.967 138.856 256.967 137.308Z" fill="white"/>
<path d="M124.902 48.8517C126.43 50.3199 128.724 51.4814 131.477 51.4814C132.638 51.4814 133.74 51.084 133.74 50.2891C133.74 49.4942 132.883 49.0967 130.865 48.7302C127.502 48.1186 122.365 47.3237 122.365 42.2167C122.365 38.7613 125.239 35.6125 130.835 35.6125C134.168 35.6125 137.165 36.5599 139.488 38.4564L136.185 42.8283C134.412 41.4835 132.118 40.8102 130.497 40.8102C128.969 40.8102 128.631 41.3601 128.631 41.881C128.631 42.6759 129.457 42.9517 131.628 43.3183C134.99 43.8991 139.976 44.8773 139.976 49.5868C139.976 54.2962 136.644 56.6809 131.17 56.6809C126.827 56.6809 123.862 55.396 121.691 53.4396L124.902 48.8536V48.8517Z" fill="white"/>
<path d="M150.13 54.9058C149.304 55.9457 147.5 56.6789 145.665 56.6789C143.464 56.6789 140.589 55.1799 140.589 51.817C140.589 48.1474 143.464 47.2599 145.665 47.2599C147.591 47.2599 149.335 47.8715 150.13 48.8806V47.1982C150.13 46.1583 149.183 45.3634 147.379 45.3634C146.003 45.3634 144.444 45.9133 143.281 46.8008L141.415 43.407C143.402 41.8173 146.155 41.1748 148.386 41.1748C152.055 41.1748 155.632 42.4597 155.632 47.3815V56.3105H150.128V54.904L150.13 54.9058ZM150.13 51.4812C149.763 50.9622 148.816 50.6863 147.959 50.6863C147.043 50.6863 146.034 50.993 146.034 51.9095C146.034 52.826 147.043 53.1019 147.959 53.1019C148.816 53.1019 149.763 52.826 150.13 52.307V51.4812Z" fill="white"/>
<path d="M158.139 35.9175H163.643V56.3126H158.139V35.9175Z" fill="white"/>
<path d="M176.095 54.6611C175.238 55.6084 173.618 56.6791 171.019 56.6791C167.594 56.6791 166.126 54.6302 166.126 52.0931V41.5435H171.63V49.7392C171.63 51.2383 172.425 51.819 173.77 51.819C174.993 51.819 175.636 51.1766 176.095 50.6575V41.5453H181.599V56.3144H176.095V54.6629V54.6611Z" fill="white"/>
<path d="M185.447 52.0312V46.3126H183V41.5433H185.447V37.5071H190.951V41.5433H193.948V46.3126H190.951V50.4414C190.951 51.2054 191.441 51.817 192.174 51.817C192.664 51.817 193.153 51.6646 193.276 51.5412L194.254 55.699C193.674 56.218 192.389 56.6771 190.523 56.6771C187.251 56.6771 185.447 55.1182 185.447 52.0294V52.0312Z" fill="white"/>
<path d="M143.854 119.706H136.545V127.503H130.368V107.108H136.545V114.324H143.854V107.108H150.031V127.503H143.854V119.706Z" fill="white"/>
<path d="M159.915 112.367C164.258 112.367 167.59 115.487 167.59 120.684V121.815H157.561C157.868 122.762 158.937 123.681 160.802 123.681C162.057 123.681 163.401 123.222 164.135 122.641L166.398 126.035C164.929 127.289 162.3 127.869 160.098 127.869C155.481 127.869 151.874 124.964 151.874 120.102C151.874 115.821 155.146 112.365 159.915 112.365V112.367ZM157.5 118.331H162.361C162.209 117.688 161.688 116.557 159.915 116.557C158.233 116.557 157.683 117.659 157.5 118.331Z" fill="white"/>
<path d="M174.585 126.862C174.585 130.653 172.719 133.497 168.438 133.497C167.734 133.497 167.184 133.466 166.725 133.376V128.942C167.031 129.004 167.275 129.004 167.458 129.004C168.467 129.004 169.078 128.271 169.078 126.864V112.737H174.583V126.864L174.585 126.862ZM168.745 108.119C168.745 106.405 170.12 105.03 171.833 105.03C173.547 105.03 174.922 106.405 174.922 108.119C174.922 109.832 173.547 111.207 171.833 111.207C170.12 111.207 168.745 109.832 168.745 108.119Z" fill="white"/>
<path d="M230 94.6163C229.524 94.9339 229.18 95.1717 229.18 95.4621C229.18 95.7796 229.392 96.0174 230.211 96.0174C230.898 96.0174 231.849 95.5945 232.512 94.9067L235.474 98.3186C233.94 99.9574 231.666 100.725 229.603 100.725C226.033 100.725 223.784 99.0844 223.784 96.4675C223.784 94.2715 225.107 93.2679 226.165 92.4476C226.906 91.8923 227.541 91.4168 227.541 90.6763C227.541 90.2263 227.383 89.856 227.251 89.6981L231.428 88.7454C231.851 89.3279 232.141 90.199 232.141 91.2571C232.141 93.1354 230.873 94.0084 230 94.6163ZM229.445 88.1628C227.911 88.1628 226.615 86.867 226.615 85.3335C226.615 83.7999 227.911 82.5042 229.445 82.5042C230.978 82.5042 232.274 83.7999 232.274 85.3335C232.274 86.867 230.978 88.1628 229.445 88.1628Z" fill="white"/>
<path d="M250.954 92.7649L251.907 93.9555L248.205 96.9173L246.961 95.3565C245.903 95.7267 244.74 95.9118 243.497 95.9118C238.049 95.9118 233.844 92.2096 233.844 86.7887C233.844 81.3678 238.049 77.6655 243.497 77.6655C248.945 77.6655 253.15 81.3678 253.15 86.7887C253.15 89.1697 252.33 91.2314 250.954 92.7649ZM243.655 91.2042L242.201 89.3784L245.903 86.4166L247.464 88.4003C247.649 87.8975 247.729 87.3422 247.729 86.7869C247.729 84.3278 246.063 82.3714 243.499 82.3714C240.934 82.3714 239.266 84.3278 239.266 86.7869C239.266 89.246 240.932 91.2042 243.499 91.2042H243.657H243.655Z" fill="white"/>
<path d="M263.435 94.166C262.694 94.9863 261.293 95.9119 259.045 95.9119C256.083 95.9119 254.814 94.1406 254.814 91.9447V82.8215H259.575V89.9085C259.575 91.2042 260.263 91.707 261.426 91.707C262.484 91.707 263.039 91.1516 263.437 90.7015V82.8215H268.197V95.5943H263.437V94.166H263.435Z" fill="white"/>
<path d="M276.532 82.504C280.287 82.504 283.171 85.2009 283.171 89.698V90.6762H274.496C274.761 91.4965 275.687 92.2896 277.3 92.2896C278.384 92.2896 279.549 91.8922 280.182 91.3913L282.138 94.3277C280.87 95.4111 278.594 95.9138 276.69 95.9138C272.698 95.9138 269.576 93.4021 269.576 89.1971C269.576 85.4949 272.405 82.5059 276.531 82.5059L276.532 82.504ZM274.444 87.6618H278.649C278.516 87.1065 278.066 86.1283 276.532 86.1283C275.079 86.1283 274.601 87.0792 274.444 87.6618ZM274.841 80.8925L278.015 77.085H282.115L278.015 80.8925H274.841Z" fill="white"/>
<path d="M292.534 91.8921V86.9467H290.418V82.8216H292.534V79.3298H297.294V82.8216H299.886V86.9467H297.294V90.5165C297.294 91.1771 297.717 91.707 298.352 91.707C298.775 91.707 299.198 91.5745 299.305 91.4692L300.151 95.0662C299.648 95.5163 298.538 95.9119 296.924 95.9119C294.095 95.9119 292.534 94.5635 292.534 91.8921Z" fill="white"/>
<path d="M308.838 94.3786C308.125 95.2769 306.564 95.9121 304.976 95.9121C303.073 95.9121 300.586 94.6163 300.586 91.7072C300.586 88.533 303.073 87.7672 304.976 87.7672C306.643 87.7672 308.151 88.2953 308.838 89.1682V87.7145C308.838 86.8144 308.018 86.1284 306.457 86.1284C305.267 86.1284 303.918 86.6039 302.913 87.3715L301.3 84.4351C303.018 83.0595 305.399 82.5042 307.329 82.5042C310.503 82.5042 313.597 83.6148 313.597 87.8724V95.5945H308.837V94.3786H308.838ZM308.838 91.4168C308.521 90.9667 307.701 90.729 306.96 90.729C306.167 90.729 305.294 90.9939 305.294 91.787C305.294 92.5801 306.167 92.8178 306.96 92.8178C307.701 92.8178 308.521 92.5801 308.838 92.13V91.4168Z" fill="white"/>
<path d="M315.764 77.9561H320.524V95.5962H315.764V77.9561Z" fill="white"/>
<path d="M326.729 83.7999C327.204 83.4823 327.549 83.2445 327.549 82.9542C327.549 82.6366 327.337 82.3988 326.518 82.3988C325.831 82.3988 324.88 82.8217 324.217 83.5095L321.255 80.0976C322.789 78.4588 325.063 77.6912 327.126 77.6912C330.696 77.6912 332.945 79.33 332.945 81.9488C332.945 84.1429 331.649 85.1483 330.564 85.9686C329.823 86.5239 329.188 86.9994 329.188 87.7399C329.188 88.19 329.346 88.5602 329.478 88.7181L325.301 89.6709C324.878 89.0883 324.587 88.2154 324.587 87.1591C324.587 85.2808 325.858 84.4079 326.729 83.7999ZM327.284 90.2534C328.818 90.2534 330.114 91.5492 330.114 93.0828C330.114 94.6163 328.818 95.9121 327.284 95.9121C325.751 95.9121 324.455 94.6163 324.455 93.0828C324.455 91.5492 325.751 90.2534 327.284 90.2534Z" fill="white"/>
<path d="M42.5584 84.3551H35.2501V92.1517H29.0742V71.7566H35.2501V78.9724H42.5584V71.7566H48.7343V92.1517H42.5584V84.3551Z" fill="white"/>
<path d="M58.6193 77.016C62.9622 77.016 66.2942 80.1357 66.2942 85.3334V86.464H56.2655C56.5722 87.4113 57.6411 88.3296 59.5067 88.3296C60.7608 88.3296 62.1056 87.8705 62.8406 87.2897L65.1037 90.6835C63.6355 91.9375 61.0058 92.5183 58.8044 92.5183C54.1875 92.5183 50.5796 89.6127 50.5796 84.7508C50.5796 80.4696 53.8517 77.0142 58.6211 77.0142L58.6193 77.016ZM56.2038 82.9795H61.0657C60.9132 82.3371 60.3924 81.2064 58.6193 81.2064C56.9369 81.2064 56.387 82.308 56.2038 82.9795Z" fill="white"/>
<path d="M67.8604 71.7566H73.3647V92.1517H67.8604V71.7566Z" fill="white"/>
<path d="M75.8608 71.7566H81.3652V92.1517H75.8608V71.7566Z" fill="white"/>
<path d="M82.9634 84.7525C82.9634 80.6238 86.0214 77.0159 91.2499 77.0159C96.4784 77.0159 99.5673 80.6238 99.5673 84.7525C99.5673 88.8812 96.5093 92.52 91.2499 92.52C85.9905 92.52 82.9634 88.8812 82.9634 84.7525ZM93.9104 84.7525C93.9104 83.1319 92.9631 81.8778 91.2499 81.8778C89.5367 81.8778 88.6202 83.1319 88.6202 84.7525C88.6202 86.3731 89.5675 87.658 91.2499 87.658C92.9322 87.658 93.9104 86.404 93.9104 84.7525Z" fill="white"/>
<path d="M84.5374 134.116C89.8149 134.116 93.8892 137.704 93.8892 142.956C93.8892 148.208 89.8149 151.796 84.5374 151.796C79.2598 151.796 75.1855 148.208 75.1855 142.956C75.1855 137.704 79.2598 134.116 84.5374 134.116ZM84.5374 138.677C82.0529 138.677 80.4377 140.573 80.4377 142.956C80.4377 145.339 82.0511 147.236 84.5374 147.236C87.0237 147.236 88.6371 145.339 88.6371 142.956C88.6371 140.573 87.0237 138.677 84.5374 138.677Z" fill="white"/>
<path d="M95.0713 135.243C95.0713 133.807 96.2237 132.655 97.6592 132.655C99.0948 132.655 100.247 133.807 100.247 135.243C100.247 136.679 99.0948 137.831 97.6592 137.831C96.2237 137.831 95.0713 136.679 95.0713 135.243ZM95.3526 139.112H99.9641V151.488H95.3526V139.112Z" fill="white"/>
<defs>
<linearGradient id="paint0_linear_1335_12940" x1="259.046" y1="235.044" x2="58.2951" y2="39.2618" gradientUnits="userSpaceOnUse">
<stop stop-color="#FCEC00"/>
<stop offset="0.02" stop-color="#FBE600"/>
<stop offset="0.04" stop-color="#FAD500"/>
<stop offset="0.07" stop-color="#F9B900"/>
<stop offset="0.1" stop-color="#F79200"/>
<stop offset="0.11" stop-color="#F78500"/>
<stop offset="0.28" stop-color="#ED0009"/>
<stop offset="0.44" stop-color="#93008E"/>
<stop offset="0.55" stop-color="#4D35A3"/>
<stop offset="0.66" stop-color="#0071BC"/>
<stop offset="0.88" stop-color="#71C600"/>
<stop offset="1" stop-color="#006837"/>
</linearGradient>
<linearGradient id="paint1_linear_1335_12940" x1="203.826" y1="212.932" x2="125.943" y2="136.976" gradientUnits="userSpaceOnUse">
<stop stop-color="#FCEC00"/>
<stop offset="0.02" stop-color="#FBE600"/>
<stop offset="0.04" stop-color="#FAD500"/>
<stop offset="0.07" stop-color="#F9B900"/>
<stop offset="0.1" stop-color="#F79200"/>
<stop offset="0.11" stop-color="#F78500"/>
<stop offset="0.28" stop-color="#ED0009"/>
<stop offset="0.44" stop-color="#93008E"/>
<stop offset="0.55" stop-color="#4D35A3"/>
<stop offset="0.66" stop-color="#0071BC"/>
<stop offset="0.88" stop-color="#71C600"/>
<stop offset="1" stop-color="#006837"/>
</linearGradient>
<linearGradient id="paint2_linear_1335_12940" x1="405.205" y1="300.211" x2="-168.378" y2="-259.173" gradientUnits="userSpaceOnUse">
<stop stop-color="#FCEC00"/>
<stop offset="0.02" stop-color="#FBE600"/>
<stop offset="0.04" stop-color="#FAD500"/>
<stop offset="0.07" stop-color="#F9B900"/>
<stop offset="0.1" stop-color="#F79200"/>
<stop offset="0.11" stop-color="#F78500"/>
<stop offset="0.28" stop-color="#ED0009"/>
<stop offset="0.44" stop-color="#93008E"/>
<stop offset="0.55" stop-color="#4D35A3"/>
<stop offset="0.66" stop-color="#0071BC"/>
<stop offset="0.88" stop-color="#71C600"/>
<stop offset="1" stop-color="#006837"/>
</linearGradient>
</defs>
</svg>
