<svg width="24" height="24" viewBox="0 0 24 24" fill="none" xmlns="http://www.w3.org/2000/svg">
<path d="M11.938 20.4621L15.796 10.3081H17.55L21.408 20.4621H19.654L18.758 17.8731H14.638L13.731 20.4621H11.938ZM15.162 16.3921H18.185L16.704 12.2121H16.642L15.162 16.3921ZM5.26898 17.9231L4.06198 16.7151L8.34198 12.4351C7.81131 11.8504 7.34698 11.2404 6.94898 10.6051C6.55098 9.97109 6.20265 9.30775 5.90398 8.61509H7.65798C7.91931 9.12575 8.19198 9.58109 8.47598 9.98109C8.75998 10.3811 9.10531 10.8091 9.51198 11.2651C10.1426 10.5804 10.6643 9.88475 11.077 9.17809C11.4896 8.47142 11.8306 7.71975 12.1 6.92309H2.72998V5.23109H8.65398V3.53809H10.346V5.23109H16.269V6.92309H13.792C13.4933 7.91442 13.092 8.88175 12.588 9.82509C12.0846 10.7684 11.4616 11.6551 10.719 12.4851L12.735 14.5501L12.1 16.2921L9.49998 13.6921L5.26898 17.9231Z" fill="white"/>
</svg>
