<svg width="45" height="26" viewBox="0 0 45 26" fill="none" xmlns="http://www.w3.org/2000/svg">
<g clip-path="url(#clip0_1122_10921)">
<rect width="45" height="26" rx="13" fill="#F89406"/>
<rect x="9.70605" y="8.80664" width="0.882353" height="8.3871" fill="white"/>
<g filter="url(#filter0_d_1122_10921)">
<rect x="19.4116" y="1.67725" width="23.8235" height="22.6452" rx="11.3226" fill="white"/>
</g>
</g>
<path d="M31.0503 16.7355C33.0696 16.7355 34.7065 15.1795 34.7065 13.2601C34.7065 11.3407 33.0696 9.78467 31.0503 9.78467C29.031 9.78467 27.394 11.3407 27.394 13.2601C27.394 15.1795 29.031 16.7355 31.0503 16.7355Z" stroke="#F89406" stroke-width="1.5" stroke-linecap="round" stroke-linejoin="round"/>
<path d="M35.0665 17.0775L34.9934 17.0079M34.9934 9.51177L35.0665 9.44226L34.9934 9.51177ZM27.034 17.0775L27.1072 17.0079L27.034 17.0775ZM31.0503 7.95586V7.91309V7.95586ZM31.0503 18.6066V18.5639V18.6066ZM25.4703 13.2599H25.4253H25.4703ZM36.6753 13.2599H36.6303H36.6753ZM27.1072 9.51177L27.034 9.44226L27.1072 9.51177Z" stroke="#F89406" stroke-width="2" stroke-linecap="round" stroke-linejoin="round"/>
<defs>
<filter id="filter0_d_1122_10921" x="12.4116" y="-2.32275" width="37.8237" height="36.645" filterUnits="userSpaceOnUse" color-interpolation-filters="sRGB">
<feFlood flood-opacity="0" result="BackgroundImageFix"/>
<feColorMatrix in="SourceAlpha" type="matrix" values="0 0 0 0 0 0 0 0 0 0 0 0 0 0 0 0 0 0 127 0" result="hardAlpha"/>
<feOffset dy="3"/>
<feGaussianBlur stdDeviation="3.5"/>
<feColorMatrix type="matrix" values="0 0 0 0 0 0 0 0 0 0 0 0 0 0 0 0 0 0 0.12 0"/>
<feBlend mode="normal" in2="BackgroundImageFix" result="effect1_dropShadow_1122_10921"/>
<feBlend mode="normal" in="SourceGraphic" in2="effect1_dropShadow_1122_10921" result="shape"/>
</filter>
<clipPath id="clip0_1122_10921">
<rect width="45" height="26" rx="13" fill="white"/>
</clipPath>
</defs>
</svg>
