<svg width="74" height="64" viewBox="0 0 74 64" fill="none" xmlns="http://www.w3.org/2000/svg">
<path d="M73.7206 60.2942L55.2203 24.4543C55.0007 24.0292 54.6633 23.6716 54.2458 23.4217C53.8283 23.1718 53.3473 23.0395 52.8565 23.0395C52.3657 23.0395 51.8847 23.1718 51.4672 23.4217C51.0497 23.6716 50.7123 24.0292 50.4928 24.4543L43.3206 38.3519C37.6988 38.0457 32.2897 36.1647 27.7505 32.9375C33.0763 27.4286 36.3031 20.3251 36.8983 12.8H44.9294C45.6304 12.8 46.3026 12.5302 46.7983 12.0502C47.2939 11.5701 47.5723 10.9189 47.5723 10.24C47.5723 9.56101 47.2939 8.90987 46.7983 8.42978C46.3026 7.94969 45.6304 7.67997 44.9294 7.67997H26.4291V2.55999C26.4291 1.88104 26.1506 1.2299 25.655 0.749804C25.1593 0.269712 24.4871 0 23.7862 0C23.0852 0 22.413 0.269712 21.9174 0.749804C21.4217 1.2299 21.1433 1.88104 21.1433 2.55999V7.67997H2.64291C1.94196 7.67997 1.26973 7.94969 0.77409 8.42978C0.278448 8.90987 0 9.56101 0 10.24C0 10.9189 0.278448 11.5701 0.77409 12.0502C1.26973 12.5302 1.94196 12.8 2.64291 12.8H31.5927C31.004 19.074 28.2545 24.9741 23.7862 29.5519C21.0017 26.706 18.8635 23.3268 17.5093 19.6319C17.3979 19.3096 17.2214 19.0119 16.99 18.7563C16.7586 18.5007 16.477 18.2923 16.1615 18.1433C15.8461 17.9943 15.5032 17.9076 15.1528 17.8883C14.8024 17.8691 14.4515 17.9176 14.1207 18.0311C13.7899 18.1445 13.4857 18.3207 13.2259 18.5492C12.9661 18.7778 12.756 19.0542 12.6076 19.3623C12.4593 19.6704 12.3758 20.004 12.3621 20.3437C12.3483 20.6834 12.4045 21.0223 12.5274 21.3407C14.1041 25.6603 16.5878 29.6165 19.8218 32.9599C14.8424 36.5042 8.82212 38.4106 2.64291 38.3999C1.94196 38.3999 1.26973 38.6696 0.77409 39.1497C0.278448 39.6298 0 40.2809 0 40.9599C0 41.6388 0.278448 42.29 0.77409 42.7701C1.26973 43.2501 1.94196 43.5199 2.64291 43.5199C10.3093 43.5281 17.7559 41.0396 23.7862 36.4543C28.7072 40.1786 34.5816 42.5359 40.7801 43.2735L31.9924 60.2942C31.8371 60.5949 31.7444 60.9222 31.7197 61.2576C31.695 61.593 31.7388 61.9297 31.8484 62.2487C32.0699 62.8929 32.5465 63.4256 33.1734 63.7294C33.8004 64.0332 34.5262 64.0834 35.1913 63.8688C35.8564 63.6543 36.4062 63.1926 36.7199 62.5854L41.2756 53.7598H64.4374L68.9931 62.5854C69.2128 63.0107 69.5505 63.3683 69.9683 63.6182C70.3861 63.868 70.8675 64.0001 71.3585 63.9998C71.809 63.9996 72.2519 63.8878 72.6452 63.6752C73.0385 63.4625 73.3692 63.156 73.6059 62.7847C73.8425 62.4135 73.9773 61.9898 73.9974 61.5539C74.0175 61.118 73.9222 60.6844 73.7206 60.2942ZM43.9185 48.6398L52.8582 31.3247L61.7945 48.6398H43.9185Z" fill="#ED9C1D"/>
</svg>
