<svg width="91" height="92" viewBox="0 0 91 92" fill="none" xmlns="http://www.w3.org/2000/svg">
<g clip-path="url(#clip0_2511_12309)">
<path d="M11.375 46H79.625" stroke="#ED9C1D" stroke-width="5" stroke-linecap="round" stroke-linejoin="round"/>
<path d="M45.5 80.125C38.7507 80.125 32.153 78.1236 26.5412 74.3739C20.9294 70.6242 16.5555 65.2946 13.9726 59.0591C11.3898 52.8236 10.714 45.9622 12.0307 39.3426C13.3474 32.723 16.5975 26.6425 21.37 21.87C26.1425 17.0975 32.223 13.8474 38.8426 12.5307C45.4622 11.214 52.3236 11.8898 58.5591 14.4726C64.7946 17.0555 70.1242 21.4294 73.8739 27.0412C77.6236 32.653 79.625 39.2507 79.625 46" stroke="#ED9C1D" stroke-width="5" stroke-linecap="round" stroke-linejoin="round"/>
<path d="M45.7417 80.0508C45.7417 80.0508 31.5229 68.6758 31.5229 45.9258C31.5229 23.1758 45.7417 11.8008 45.7417 11.8008C45.7417 11.8008 59.9605 23.1758 59.9605 45.9258" stroke="#ED9C1D" stroke-width="5" stroke-linecap="round" stroke-linejoin="round"/>
<path d="M73.3185 75.1371L66.8132 62.1264C66.736 61.9721 66.6173 61.8423 66.4705 61.7516C66.3237 61.6609 66.1546 61.6128 65.982 61.6128C65.8094 61.6128 65.6403 61.6609 65.4935 61.7516C65.3467 61.8423 65.228 61.9721 65.1508 62.1264L62.6289 67.1715C60.6521 67.0604 58.7501 66.3776 57.154 65.206C59.0267 63.2062 60.1613 60.6274 60.3706 57.8957H63.1946C63.4411 57.8957 63.6775 57.7978 63.8517 57.6235C64.026 57.4492 64.1239 57.2128 64.1239 56.9663C64.1239 56.7199 64.026 56.4835 63.8517 56.3092C63.6775 56.1349 63.4411 56.037 63.1946 56.037H56.6893V54.1784C56.6893 53.9319 56.5914 53.6955 56.4171 53.5212C56.2428 53.3469 56.0064 53.249 55.76 53.249C55.5135 53.249 55.2771 53.3469 55.1028 53.5212C54.9285 53.6955 54.8306 53.9319 54.8306 54.1784V56.037H48.3253C48.0789 56.037 47.8425 56.1349 47.6682 56.3092C47.4939 56.4835 47.396 56.7199 47.396 56.9663C47.396 57.2128 47.4939 57.4492 47.6682 57.6235C47.8425 57.7978 48.0789 57.8957 48.3253 57.8957H58.505C58.298 60.1733 57.3312 62.3152 55.76 63.977C54.7809 62.9439 54.029 61.7172 53.5528 60.3758C53.5137 60.2588 53.4516 60.1507 53.3702 60.058C53.2888 59.9652 53.1898 59.8895 53.0789 59.8354C52.968 59.7813 52.8474 59.7499 52.7242 59.7429C52.601 59.7359 52.4776 59.7535 52.3613 59.7947C52.245 59.8359 52.138 59.8998 52.0467 59.9828C51.9553 60.0658 51.8814 60.1661 51.8292 60.2779C51.7771 60.3898 51.7477 60.5109 51.7429 60.6342C51.738 60.7575 51.7578 60.8806 51.801 60.9962C52.3554 62.5642 53.2288 64.0004 54.366 65.2141C52.6151 66.5008 50.4981 67.1929 48.3253 67.189C48.0789 67.189 47.8425 67.2869 47.6682 67.4612C47.4939 67.6355 47.396 67.8718 47.396 68.1183C47.396 68.3648 47.4939 68.6012 47.6682 68.7754C47.8425 68.9497 48.0789 69.0476 48.3253 69.0476C51.0211 69.0506 53.6395 68.1473 55.76 66.4827C57.4904 67.8347 59.556 68.6904 61.7356 68.9582L58.6455 75.1371C58.5909 75.2462 58.5583 75.3651 58.5497 75.4868C58.541 75.6085 58.5563 75.7308 58.5949 75.8466C58.6728 76.0805 58.8404 76.2738 59.0608 76.3841C59.2813 76.4944 59.5365 76.5126 59.7704 76.4347C60.0042 76.3569 60.1976 76.1893 60.3079 75.9688L61.9098 72.765H70.0542L71.6562 75.9688C71.7334 76.1232 71.8522 76.253 71.9991 76.3437C72.146 76.4344 72.3153 76.4824 72.4879 76.4823C72.6463 76.4822 72.802 76.4416 72.9404 76.3644C73.0787 76.2872 73.1949 76.176 73.2782 76.0412C73.3614 75.9064 73.4088 75.7526 73.4158 75.5944C73.4229 75.4361 73.3894 75.2787 73.3185 75.1371ZM62.8391 70.9063L65.9826 64.6205L69.1249 70.9063H62.8391Z" fill="#ED9C1D"/>
</g>
<defs>
<clipPath id="clip0_2511_12309">
<rect width="91" height="91" fill="white" transform="translate(0 0.5)"/>
</clipPath>
</defs>
</svg>
