<svg width="24" height="24" viewBox="0 0 24 24" fill="none" xmlns="http://www.w3.org/2000/svg">
<path d="M11.9998 2.75024C6.89225 2.75024 2.75 6.89024 2.75 12C2.75 17.1097 6.89225 21.2497 11.9998 21.2497C17.1088 21.2497 21.2495 17.1097 21.2495 12C21.2495 6.89024 17.1095 2.75024 11.9998 2.75024ZM11.9998 5.00024C13.3872 5.00024 14.6788 5.41124 15.7677 6.11024L6.11 15.768C5.38523 14.6449 4.99982 13.3366 5 12C5 8.14049 8.14025 5.00024 11.9998 5.00024ZM11.9998 18.9997C10.6632 18.9996 9.35496 18.6142 8.23175 17.8897L17.8888 8.23199C18.6135 9.35506 18.9989 10.6634 18.9988 12C18.9988 15.8595 15.8593 18.9997 11.9998 18.9997Z" fill="black"/>
</svg>
