<svg width="19" height="19" viewBox="0 0 19 19" fill="none" xmlns="http://www.w3.org/2000/svg">
<path d="M2.9502 13.4374V16.2499H5.7627L14.0577 7.95488L11.2452 5.14238L2.9502 13.4374ZM16.2327 5.77988C16.3022 5.71049 16.3574 5.62808 16.395 5.53735C16.4327 5.44662 16.452 5.34936 16.452 5.25113C16.452 5.1529 16.4327 5.05564 16.395 4.96491C16.3574 4.87418 16.3022 4.79177 16.2327 4.72238L14.4777 2.96738C14.4083 2.89785 14.3259 2.84269 14.2352 2.80506C14.1444 2.76742 14.0472 2.74805 13.9489 2.74805C13.8507 2.74805 13.7535 2.76742 13.6627 2.80506C13.572 2.84269 13.4896 2.89785 13.4202 2.96738L12.0477 4.33988L14.8602 7.15238L16.2327 5.77988Z" fill="black"/>
</svg>
