<svg width="16" height="15" viewBox="0 0 16 15" fill="none" xmlns="http://www.w3.org/2000/svg">
<path d="M8.1001 13.5C4.7926 13.5 2.1001 10.8075 2.1001 7.5C2.1001 4.1925 4.7926 1.5 8.1001 1.5C11.4076 1.5 14.1001 4.1925 14.1001 7.5C14.1001 10.8075 11.4076 13.5 8.1001 13.5ZM8.1001 0C3.9526 0 0.600098 3.3525 0.600098 7.5C0.600098 11.6475 3.9526 15 8.1001 15C12.2476 15 15.6001 11.6475 15.6001 7.5C15.6001 3.3525 12.2476 0 8.1001 0ZM10.0426 4.5L8.1001 6.4425L6.1576 4.5L5.1001 5.5575L7.0426 7.5L5.1001 9.4425L6.1576 10.5L8.1001 8.5575L10.0426 10.5L11.1001 9.4425L9.1576 7.5L11.1001 5.5575L10.0426 4.5Z" fill="black"/>
</svg>
