<svg width="18" height="19" viewBox="0 0 18 19" fill="none" xmlns="http://www.w3.org/2000/svg">
<path d="M1.09473 7.1567L2.15973 6.0917L3.74973 7.6892L5.33973 6.0917L6.40473 7.1567L4.80723 8.7467L6.40473 10.3367L5.33973 11.4017L3.74973 9.8042L2.15973 11.4017L1.09473 10.3367L2.69223 8.7467L1.09473 7.1567ZM11.2497 3.4967C12.0454 3.4967 12.8084 3.81277 13.371 4.37538C13.9337 4.93799 14.2497 5.70105 14.2497 6.4967C14.2497 7.29235 13.9337 8.05542 13.371 8.61802C12.8084 9.18063 12.0454 9.4967 11.2497 9.4967C10.4541 9.4967 9.69102 9.18063 9.12841 8.61802C8.5658 8.05542 8.24973 7.29235 8.24973 6.4967C8.24973 5.70105 8.5658 4.93799 9.12841 4.37538C9.69102 3.81277 10.4541 3.4967 11.2497 3.4967ZM11.2497 4.9217C10.832 4.9217 10.4314 5.08764 10.136 5.38301C9.84066 5.67838 9.67473 6.07899 9.67473 6.4967C9.67473 6.91442 9.84066 7.31503 10.136 7.6104C10.4314 7.90577 10.832 8.0717 11.2497 8.0717C11.6674 8.0717 12.0681 7.90577 12.3634 7.6104C12.6588 7.31503 12.8247 6.91442 12.8247 6.4967C12.8247 6.07899 12.6588 5.67838 12.3634 5.38301C12.0681 5.08764 11.6674 4.9217 11.2497 4.9217ZM11.2497 10.2467C13.2522 10.2467 17.2497 11.2442 17.2497 13.2467V15.4967H5.24973V13.2467C5.24973 11.2442 9.24723 10.2467 11.2497 10.2467ZM11.2497 11.6717C8.99973 11.6717 6.67473 12.7667 6.67473 13.2467V14.0717H15.8247V13.2467C15.8247 12.7667 13.4772 11.6717 11.2497 11.6717Z" fill="white"/>
</svg>
