<svg width="18" height="18" viewBox="0 0 18 18" fill="none" xmlns="http://www.w3.org/2000/svg">
<path d="M7.5 9.75C7.2375 10.1925 7.02 10.68 6.8925 11.1975C4.875 11.37 2.925 12.315 2.925 12.75V13.575H6.9C7.0275 14.085 7.2375 14.565 7.5 15H1.5V12.75C1.5 10.755 5.4975 9.75 7.5 9.75ZM7.5 3C8.29565 3 9.05871 3.31607 9.62132 3.87868C10.1839 4.44129 10.5 5.20435 10.5 6C10.5 6.6825 10.2675 7.3125 9.885 7.8225C9.24 8.0625 8.6625 8.445 8.1825 8.925L7.5 9C6.70435 9 5.94129 8.68393 5.37868 8.12132C4.81607 7.55871 4.5 6.79565 4.5 6C4.5 5.20435 4.81607 4.44129 5.37868 3.87868C5.94129 3.31607 6.70435 3 7.5 3ZM7.5 4.425C7.08228 4.425 6.68168 4.59094 6.38631 4.88631C6.09094 5.18168 5.925 5.58228 5.925 6C5.925 6.41772 6.09094 6.81832 6.38631 7.11369C6.68168 7.40906 7.08228 7.575 7.5 7.575C7.91772 7.575 8.31832 7.40906 8.61369 7.11369C8.90906 6.81832 9.075 6.41772 9.075 6C9.075 5.58228 8.90906 5.18168 8.61369 4.88631C8.31832 4.59094 7.91772 4.425 7.5 4.425ZM11.625 9C13.5 9 15 10.5 15 12.375C15 13.035 14.8125 13.6575 14.4825 14.175L16.7925 16.5L15.75 17.5425L13.41 15.24C12.8925 15.5625 12.2775 15.75 11.625 15.75C9.75 15.75 8.25 14.25 8.25 12.375C8.25 10.5 9.75 9 11.625 9ZM11.625 10.5C11.1277 10.5 10.6508 10.6975 10.2992 11.0492C9.94754 11.4008 9.75 11.8777 9.75 12.375C9.75 12.8723 9.94754 13.3492 10.2992 13.7008C10.6508 14.0525 11.1277 14.25 11.625 14.25C12.1223 14.25 12.5992 14.0525 12.9508 13.7008C13.3025 13.3492 13.5 12.8723 13.5 12.375C13.5 11.8777 13.3025 11.4008 12.9508 11.0492C12.5992 10.6975 12.1223 10.5 11.625 10.5Z" fill="white"/>
</svg>
