<svg width="16" height="17" viewBox="0 0 16 17" fill="none" xmlns="http://www.w3.org/2000/svg">
<path d="M15.3349 4.30501C15.1878 4.3812 15.0164 4.39585 14.8585 4.34575C14.7006 4.29565 14.569 4.18489 14.4927 4.03782C13.8961 2.8593 12.9932 1.86321 11.8786 1.15423C11.8092 1.11042 11.749 1.05336 11.7016 0.986308C11.6542 0.919255 11.6205 0.843521 11.6024 0.76343C11.5842 0.68334 11.582 0.600461 11.5959 0.519527C11.6098 0.438592 11.6395 0.361187 11.6833 0.29173C11.7271 0.222273 11.7842 0.162125 11.8513 0.114719C11.9183 0.0673142 11.994 0.0335803 12.0741 0.0154438C12.1542 -0.0026926 12.2371 -0.00487647 12.318 0.00901697C12.399 0.0229104 12.4764 0.052609 12.5458 0.0964172C13.8447 0.928086 14.8994 2.08983 15.6021 3.46282C15.6783 3.60995 15.6929 3.7813 15.6428 3.93922C15.5927 4.09715 15.482 4.22872 15.3349 4.30501ZM0.624738 4.37532C0.739241 4.37528 0.851529 4.34377 0.949348 4.28426C1.04717 4.22474 1.12675 4.13949 1.17943 4.03782C1.77599 2.8593 2.67897 1.86321 3.79349 1.15423C3.93376 1.06576 4.03315 0.92518 4.06977 0.76343C4.1064 0.60168 4.07728 0.432004 3.9888 0.29173C3.90033 0.151455 3.75975 0.052072 3.598 0.0154438C3.43625 -0.0211844 3.26658 0.00794262 3.1263 0.0964172C1.8274 0.928086 0.772691 2.08983 0.0700509 3.46282C0.0207054 3.55807 -0.00329371 3.66442 0.00036336 3.77163C0.00402043 3.87884 0.0352105 3.98331 0.0909319 4.07497C0.146653 4.16664 0.22503 4.24242 0.31852 4.29502C0.41201 4.34762 0.517465 4.37528 0.624738 4.37532ZM15.1638 12.4956C15.2745 12.6855 15.3332 12.9012 15.334 13.121C15.3347 13.3408 15.2775 13.5569 15.1681 13.7476C15.0587 13.9382 14.9009 14.0966 14.7107 14.2068C14.5206 14.317 14.3047 14.3752 14.0849 14.3753H10.8974C10.7539 15.0818 10.3707 15.7169 9.81256 16.1731C9.25442 16.6292 8.55574 16.8785 7.83489 16.8785C7.11405 16.8785 6.41537 16.6292 5.85723 16.1731C5.2991 15.7169 4.91584 15.0818 4.7724 14.3753H1.58489C1.36522 14.3749 1.14955 14.3166 0.959587 14.2063C0.769629 14.0959 0.612097 13.9375 0.502863 13.7469C0.393628 13.5563 0.336547 13.3403 0.33737 13.1206C0.338193 12.901 0.396891 12.6854 0.507551 12.4956C1.21146 11.2808 1.58489 9.55345 1.58489 7.50032C1.58489 5.84272 2.24337 4.25301 3.41548 3.08091C4.58758 1.9088 6.17729 1.25032 7.83489 1.25032C9.4925 1.25032 11.0822 1.9088 12.2543 3.08091C13.4264 4.25301 14.0849 5.84272 14.0849 7.50032C14.0849 9.55267 14.4583 11.28 15.1638 12.4956ZM9.60208 14.3753H6.06771C6.19719 14.7405 6.43662 15.0566 6.75307 15.2801C7.06952 15.5037 7.44745 15.6237 7.83489 15.6237C8.22234 15.6237 8.60027 15.5037 8.91672 15.2801C9.23317 15.0566 9.4726 14.7405 9.60208 14.3753ZM14.0849 13.1253C13.2536 11.698 12.8349 9.80579 12.8349 7.50032C12.8349 6.17424 12.3081 4.90247 11.3704 3.96479C10.4327 3.02711 9.16098 2.50032 7.83489 2.50032C6.50881 2.50032 5.23704 3.02711 4.29936 3.96479C3.36168 4.90247 2.83489 6.17424 2.83489 7.50032C2.83489 9.80657 2.41458 11.6988 1.58489 13.1253H14.0849Z" fill="white"/>
</svg>
