<svg width="24" height="24" viewBox="0 0 24 24" fill="none" xmlns="http://www.w3.org/2000/svg">
<g clip-path="url(#clip0_1335_13007)">
<path d="M8.07581 7.25996L8.17081 7.34296L16.6568 15.828C16.768 15.9391 16.8515 16.0748 16.9004 16.2242C16.9493 16.3736 16.9623 16.5325 16.9384 16.6879C16.9144 16.8432 16.8542 16.9908 16.7625 17.1185C16.6708 17.2462 16.5503 17.3505 16.4108 17.423L16.2948 17.473L5.90981 21.3C3.95781 22.02 2.05681 20.185 2.64981 18.236L2.69981 18.09L6.52581 7.70496C6.57639 7.56739 6.6566 7.44263 6.76074 7.33949C6.86489 7.23636 6.99044 7.15738 7.12849 7.10815C7.26655 7.05892 7.41374 7.04064 7.55964 7.05461C7.70555 7.06857 7.8466 7.11444 7.97281 7.18896L8.07581 7.25896V7.25996ZM17.1068 11.604C18.0178 11.652 19.2668 11.844 20.3528 12.496C20.573 12.6265 20.7347 12.8365 20.8047 13.0826C20.8747 13.3288 20.8477 13.5925 20.7291 13.8193C20.6106 14.0462 20.4096 14.2189 20.1675 14.302C19.9254 14.3851 19.6607 14.3722 19.4278 14.266L19.3238 14.211C18.6418 13.801 17.7698 13.641 17.0018 13.601C16.6854 13.5826 16.3681 13.584 16.0518 13.605L15.7358 13.636C15.4749 13.6696 15.2113 13.5992 15.002 13.4398C14.7928 13.2805 14.6547 13.0451 14.6177 12.7847C14.5808 12.5243 14.6479 12.2598 14.8046 12.0485C14.9613 11.8372 15.1949 11.6962 15.4548 11.656C16.0025 11.5852 16.5557 11.5675 17.1068 11.603V11.604ZM19.1318 8.81796C19.3866 8.81849 19.6316 8.91627 19.8167 9.09131C20.0019 9.26636 20.1132 9.50548 20.128 9.75985C20.1428 10.0142 20.06 10.2646 19.8964 10.46C19.7328 10.6553 19.5008 10.7809 19.2478 10.811L19.1318 10.818H18.4238C18.169 10.8174 17.924 10.7196 17.7389 10.5446C17.5537 10.3696 17.4424 10.1304 17.4276 9.87606C17.4128 9.6217 17.4956 9.37128 17.6592 9.17593C17.8228 8.98058 18.0548 8.85505 18.3078 8.82496L18.4238 8.81796H19.1318ZM15.9498 8.04996C16.122 8.22215 16.2254 8.45125 16.2407 8.69428C16.256 8.9373 16.1821 9.17755 16.0328 9.36996L15.9498 9.46396L14.8888 10.525C14.7089 10.7043 14.4674 10.8084 14.2134 10.8162C13.9595 10.8239 13.7121 10.7347 13.5215 10.5667C13.331 10.3987 13.2115 10.1644 13.1874 9.91148C13.1633 9.65856 13.2364 9.40595 13.3918 9.20496L13.4748 9.11096L14.5348 8.05096C14.6277 7.95798 14.738 7.88422 14.8594 7.8339C14.9808 7.78357 15.1109 7.75767 15.2423 7.75767C15.3737 7.75767 15.5039 7.78357 15.6253 7.8339C15.7466 7.88422 15.8569 7.95698 15.9498 8.04996ZM13.3628 2.78396C13.8108 4.12996 13.5708 5.60396 13.2908 6.63396C13.1225 7.2761 12.8914 7.90012 12.6008 8.49696C12.4824 8.73433 12.2745 8.91493 12.0229 8.99904C11.7714 9.08315 11.4967 9.06388 11.2593 8.94546C11.0219 8.82704 10.8413 8.61917 10.7572 8.36759C10.6731 8.11601 10.6924 7.84133 10.8108 7.60396C11.0427 7.12451 11.2269 6.62343 11.3608 6.10796C11.5878 5.27596 11.7018 4.37296 11.5268 3.63296L11.4658 3.41696C11.4222 3.2919 11.4039 3.15942 11.412 3.02723C11.42 2.89504 11.4542 2.76576 11.5126 2.6469C11.571 2.52803 11.6524 2.42195 11.7522 2.33482C11.8519 2.24768 11.968 2.18123 12.0936 2.13931C12.2192 2.09739 12.3519 2.08084 12.484 2.09062C12.6161 2.10041 12.7449 2.13633 12.863 2.1963C12.981 2.25628 13.086 2.33911 13.1718 2.43999C13.2576 2.54087 13.3226 2.65779 13.3628 2.78396ZM18.7778 5.22196C18.9653 5.40949 19.0706 5.66379 19.0706 5.92896C19.0706 6.19412 18.9653 6.44843 18.7778 6.63596L18.0708 7.34296C17.9786 7.43847 17.8682 7.51465 17.7462 7.56706C17.6242 7.61947 17.493 7.64705 17.3602 7.64821C17.2274 7.64936 17.0958 7.62406 16.9729 7.57378C16.85 7.5235 16.7383 7.44924 16.6444 7.35535C16.5505 7.26146 16.4763 7.14981 16.426 7.02691C16.3757 6.90402 16.3504 6.77234 16.3516 6.63956C16.3527 6.50678 16.3803 6.37556 16.4327 6.25355C16.4851 6.13155 16.5613 6.0212 16.6568 5.92896L17.3638 5.22196C17.5513 5.03449 17.8056 4.92917 18.0708 4.92917C18.336 4.92917 18.5903 5.03449 18.7778 5.22196Z" fill="#3A7C3B"/>
</g>
<defs>
<clipPath id="clip0_1335_13007">
<rect width="24" height="24" fill="white"/>
</clipPath>
</defs>
</svg>
