<svg width="20" height="20" viewBox="0 0 20 20" fill="none" xmlns="http://www.w3.org/2000/svg">
<path d="M12.4079 2.8763H7.59121C7.25788 2.8763 6.99121 2.60964 6.99121 2.2763C6.99121 1.94297 7.25788 1.66797 7.59121 1.66797H12.4079C12.7412 1.66797 13.0079 1.93464 13.0079 2.26797C13.0079 2.6013 12.7412 2.8763 12.4079 2.8763Z" fill="#292D32"/>
<path d="M11.6671 16.6417V14.1917C11.6671 12.6833 12.6837 11.6667 14.1921 11.6667H16.6421C16.8337 11.6667 17.0171 11.6833 17.1921 11.7167C17.2087 11.5167 17.2254 11.3167 17.2254 11.1083C17.2254 7.11667 13.9837 3.875 10.0004 3.875C6.01706 3.875 2.77539 7.11667 2.77539 11.1083C2.77539 15.0917 6.01706 18.3333 10.0004 18.3333C10.7087 18.3333 11.3837 18.2167 12.0337 18.0333C11.8004 17.6417 11.6671 17.175 11.6671 16.6417ZM10.6254 10.8333C10.6254 11.175 10.3421 11.4583 10.0004 11.4583C9.65872 11.4583 9.37539 11.175 9.37539 10.8333V6.66667C9.37539 6.325 9.65872 6.04167 10.0004 6.04167C10.3421 6.04167 10.6254 6.325 10.6254 6.66667V10.8333Z" fill="#292D32"/>
<path d="M16.6417 12.5H14.2C13.1333 12.5 12.5 13.1333 12.5 14.1917V16.6417C12.5 17.7 13.1333 18.3333 14.2 18.3333H16.6417C17.7 18.3333 18.3333 17.7 18.3333 16.6417V14.1917C18.3333 13.1333 17.7 12.5 16.6417 12.5ZM14.9333 16.7167C14.9333 16.9833 14.7167 17.2 14.4417 17.2C14.175 17.2 13.9583 16.9833 13.9583 16.7167V14.1167C13.9583 13.85 14.175 13.6333 14.4417 13.6333C14.7167 13.6333 14.9333 13.85 14.9333 14.1167V16.7167ZM16.875 16.7167C16.875 16.9833 16.6583 17.2 16.3917 17.2C16.125 17.2 15.9 16.9833 15.9 16.7167V14.1167C15.9 13.85 16.125 13.6333 16.3917 13.6333C16.6583 13.6333 16.875 13.85 16.875 14.1167V16.7167Z" fill="#292D32"/>
</svg>
