<svg width="19" height="19" viewBox="0 0 19 19" fill="none" xmlns="http://www.w3.org/2000/svg">
<path fill-rule="evenodd" clip-rule="evenodd" d="M2.65965 7.36325C2.6499 7.76825 2.6499 8.2265 2.6499 8.75V10.25C2.6499 12.371 2.6499 13.4323 3.30915 14.0907C3.96765 14.75 5.0289 14.75 7.1499 14.75H11.6499C13.7709 14.75 14.8322 14.75 15.4907 14.0907C16.1499 13.4323 16.1499 12.371 16.1499 10.25V8.75C16.1499 8.2265 16.1499 7.7675 16.1402 7.36325L10.1282 10.703C9.90537 10.8267 9.65474 10.8916 9.3999 10.8916C9.14507 10.8916 8.89444 10.8267 8.67165 10.703L2.65965 7.36325ZM2.83215 5.7725C2.8959 5.78808 2.95722 5.81231 3.0144 5.8445L9.3999 9.392L15.7854 5.8445C15.8427 5.81263 15.904 5.78843 15.9677 5.7725C15.8702 5.417 15.7202 5.13875 15.4907 4.90925C14.8322 4.25 13.7709 4.25 11.6499 4.25H7.1499C5.0289 4.25 3.96765 4.25 3.30915 4.90925C3.0789 5.13875 2.92965 5.417 2.83215 5.77175" fill="black"/>
</svg>
