<svg width="19" height="18" viewBox="0 0 19 18" fill="none" xmlns="http://www.w3.org/2000/svg">
<path d="M14.969 3.6975L13.9115 4.755C15.0355 5.88183 15.6666 7.40845 15.6665 9C15.6665 12.315 12.9815 15 9.6665 15C6.3515 15 3.6665 12.315 3.6665 9C3.6665 5.94 5.954 3.42 8.9165 3.0525V4.5675C6.7865 4.9275 5.1665 6.7725 5.1665 9C5.1665 11.4825 7.184 13.5 9.6665 13.5C12.149 13.5 14.1665 11.4825 14.1665 9C14.1665 7.755 13.664 6.63 12.8465 5.82L11.789 6.8775C12.329 7.425 12.6665 8.175 12.6665 9C12.6665 10.6575 11.324 12 9.6665 12C8.009 12 6.6665 10.6575 6.6665 9C6.6665 7.605 7.6265 6.4425 8.9165 6.105V7.71C8.4665 7.9725 8.1665 8.445 8.1665 9C8.1665 9.825 8.8415 10.5 9.6665 10.5C10.4915 10.5 11.1665 9.825 11.1665 9C11.1665 8.445 10.8665 7.965 10.4165 7.71V1.5H9.6665C5.5265 1.5 2.1665 4.86 2.1665 9C2.1665 13.14 5.5265 16.5 9.6665 16.5C13.8065 16.5 17.1665 13.14 17.1665 9C17.1665 6.93 16.3265 5.055 14.969 3.6975Z" fill="black"/>
</svg>
