<svg width="18" height="18" viewBox="0 0 18 18" fill="none" xmlns="http://www.w3.org/2000/svg">
<path d="M10.365 10.5H7.245C7.17 10.005 7.125 9.51 7.125 9C7.125 8.49 7.17 7.9875 7.245 7.5H10.755C10.8225 7.9875 10.875 8.49 10.875 9C10.875 9.375 10.845 9.75 10.8 10.095C11.25 9.72 11.79 9.4275 12.375 9.24V9C12.375 8.49 12.33 7.995 12.27 7.5H14.805C14.925 7.98 15 8.4825 15 9V9.135C15.525 9.2625 16.0125 9.4725 16.4625 9.75C16.5 9.51 16.5 9.255 16.5 9C16.5 4.875 13.125 1.5 9 1.5C4.8525 1.5 1.5 4.875 1.5 9C1.5 13.125 4.875 16.5 9 16.5C9.255 16.5 9.51 16.5 9.75 16.4625C9.4425 15.9675 9.2175 15.4125 9.0975 14.8125C9.0675 14.865 9.0375 14.9175 9 14.97C8.3775 14.07 7.875 13.0725 7.5675 12H9.375C9.6075 11.4375 9.945 10.935 10.365 10.5ZM14.19 6H11.9775C11.7428 5.07109 11.3952 4.17442 10.9425 3.33C12.3225 3.8025 13.47 4.755 14.19 6ZM9 3.0225C9.6225 3.9225 10.125 4.9275 10.4325 6H7.5675C7.875 4.9275 8.3775 3.9225 9 3.0225ZM3.195 10.5C3.075 10.02 3 9.5175 3 9C3 8.4825 3.075 7.98 3.195 7.5H5.73C5.67 7.995 5.625 8.49 5.625 9C5.625 9.51 5.67 10.005 5.73 10.5H3.195ZM3.81 12H6C6.2625 12.9375 6.6 13.8375 7.05 14.67C5.68397 14.1987 4.53363 13.2508 3.81 12ZM6 6H3.81C4.52914 4.74541 5.6811 3.79611 7.05 3.33C6.6 4.1625 6.2625 5.0625 6 6ZM13.875 10.5C12 10.5 10.5 12 10.5 13.875C10.5 15.75 12 17.25 13.875 17.25C15.75 17.25 17.25 15.75 17.25 13.875C17.25 12 15.75 10.5 13.875 10.5ZM13.875 16.125C12.63 16.125 11.625 15.12 11.625 13.875C11.625 13.455 11.7375 13.065 11.94 12.75L15 15.81C14.685 16.0125 14.295 16.125 13.875 16.125ZM15.81 15L12.75 11.94C13.065 11.7375 13.455 11.625 13.875 11.625C15.12 11.625 16.125 12.63 16.125 13.875C16.125 14.295 16.0125 14.685 15.81 15Z" fill="white"/>
</svg>
