<svg width="12" height="15" viewBox="0 0 12 15" fill="none" xmlns="http://www.w3.org/2000/svg">
<path d="M11.5575 4.0575L7.935 0.435C7.6575 0.1575 7.275 0 6.8775 0H1.5C0.675 0 0.00750017 0.675 0.00750017 1.5L0 13.5C0 14.325 0.6675 15 1.4925 15H10.5C11.325 15 12 14.325 12 13.5V5.1225C12 4.725 11.8425 4.3425 11.5575 4.0575ZM8.1 9.75H6.75V12C6.75 12.4125 6.4125 12.75 6 12.75C5.5875 12.75 5.25 12.4125 5.25 12V9.75H3.9075C3.57 9.75 3.405 9.345 3.645 9.1125L5.745 7.02C5.895 6.8775 6.1275 6.8775 6.2775 7.02L8.37 9.1125C8.595 9.345 8.43 9.75 8.1 9.75ZM7.5 5.25C7.0875 5.25 6.75 4.9125 6.75 4.5V1.125L10.875 5.25H7.5Z" fill="#E8991C"/>
</svg>
