<svg width="20" height="21" viewBox="0 0 20 21" fill="none" xmlns="http://www.w3.org/2000/svg">
<g clip-path="url(#clip0_1484_11434)">
<path d="M9.16667 5.5C9.38768 5.5 9.59964 5.5878 9.75592 5.74408C9.9122 5.90036 10 6.11232 10 6.33333C10 6.55435 9.9122 6.76631 9.75592 6.92259C9.59964 7.07887 9.38768 7.16667 9.16667 7.16667H4.16667V16.3333H13.3333V11.3333C13.3333 11.1123 13.4211 10.9004 13.5774 10.7441C13.7337 10.5878 13.9457 10.5 14.1667 10.5C14.3877 10.5 14.5996 10.5878 14.7559 10.7441C14.9122 10.9004 15 11.1123 15 11.3333V16.3333C15 16.7754 14.8244 17.1993 14.5118 17.5118C14.1993 17.8244 13.7754 18 13.3333 18H4.16667C3.72464 18 3.30072 17.8244 2.98816 17.5118C2.67559 17.1993 2.5 16.7754 2.5 16.3333V7.16667C2.5 6.72464 2.67559 6.30072 2.98816 5.98816C3.30072 5.67559 3.72464 5.5 4.16667 5.5H9.16667ZM16.6667 3C16.8877 3 17.0996 3.0878 17.2559 3.24408C17.4122 3.40036 17.5 3.61232 17.5 3.83333V8C17.5 8.22101 17.4122 8.43297 17.2559 8.58926C17.0996 8.74554 16.8877 8.83333 16.6667 8.83333C16.4457 8.83333 16.2337 8.74554 16.0774 8.58926C15.9211 8.43297 15.8333 8.22101 15.8333 8V5.845L8.9225 12.7558C8.76533 12.9076 8.55483 12.9916 8.33633 12.9897C8.11784 12.9878 7.90882 12.9002 7.75432 12.7457C7.59981 12.5912 7.51217 12.3822 7.51027 12.1637C7.50837 11.9452 7.59237 11.7347 7.74417 11.5775L14.655 4.66667H12.5C12.279 4.66667 12.067 4.57887 11.9107 4.42259C11.7545 4.26631 11.6667 4.05435 11.6667 3.83333C11.6667 3.61232 11.7545 3.40036 11.9107 3.24408C12.067 3.0878 12.279 3 12.5 3H16.6667Z" fill="white"/>
</g>
<defs>
<clipPath id="clip0_1484_11434">
<rect width="20" height="20" fill="white" transform="translate(0 0.5)"/>
</clipPath>
</defs>
</svg>
