<svg width="20" height="20" viewBox="0 0 20 20" fill="none" xmlns="http://www.w3.org/2000/svg">
<path d="M18.317 13.043C17.6337 12.2013 16.592 11.668 15.417 11.668C14.5337 11.668 13.717 11.9763 13.0753 12.493C12.2087 13.1763 11.667 14.2346 11.667 15.418C11.667 16.118 11.867 16.7846 12.2087 17.3513C12.4337 17.7263 12.717 18.0513 13.0503 18.318H13.0587C13.7003 18.8513 14.5253 19.168 15.417 19.168C16.367 19.168 17.2253 18.818 17.8837 18.2346C18.1753 17.9846 18.4253 17.6846 18.6253 17.3513C18.967 16.7846 19.167 16.118 19.167 15.418C19.167 14.518 18.8503 13.6846 18.317 13.043ZM17.3003 14.9513L15.3003 16.8013C15.1837 16.9096 15.0253 16.968 14.8753 16.968C14.717 16.968 14.5587 16.9096 14.4337 16.7846L13.5087 15.8596C13.267 15.618 13.267 15.218 13.5087 14.9763C13.7503 14.7346 14.1503 14.7346 14.392 14.9763L14.892 15.4763L16.4503 14.0346C16.7003 13.8013 17.1003 13.818 17.3337 14.068C17.5753 14.3263 17.5587 14.718 17.3003 14.9513Z" fill="#292D32"/>
<path d="M12.2746 4.88464V2.08464C12.2746 1.8513 12.0913 1.66797 11.8579 1.66797H8.14128C7.90794 1.66797 7.72461 1.8513 7.72461 2.08464V4.88464C7.72461 5.11797 7.90794 5.3013 8.14128 5.3013H11.8579C12.0913 5.3013 12.2746 5.11797 12.2746 4.88464Z" fill="#292D32"/>
<path d="M6.04206 1.68457C3.90872 1.8179 2.45039 2.9179 1.90872 4.75123C1.82539 5.02623 2.02539 5.30123 2.30872 5.30123H6.05872C6.29206 5.30123 6.47539 5.1179 6.47539 4.88457V2.10123C6.47539 1.8679 6.27539 1.6679 6.04206 1.68457Z" fill="#292D32"/>
<path d="M13.9587 1.67285C16.0921 1.80618 17.5504 2.90618 18.0921 4.73951C18.1754 5.01451 17.9754 5.28951 17.6921 5.28951H13.9421C13.7087 5.28951 13.5254 5.10618 13.5254 4.87285V2.08951C13.5254 1.85618 13.7254 1.65618 13.9587 1.67285Z" fill="#292D32"/>
<path d="M18.3337 6.96745V10.6174C18.3337 10.9258 18.0087 11.1258 17.7337 10.9841C17.0337 10.6174 16.2337 10.4174 15.417 10.4174C14.0753 10.4174 12.767 10.9674 11.8337 11.9258C10.917 12.8591 10.417 14.1008 10.417 15.4174C10.417 16.0924 10.6837 16.9591 11.017 17.6841C11.1503 17.9758 10.9503 18.3341 10.6253 18.3341H6.50866C3.83366 18.3341 1.66699 16.1674 1.66699 13.4924V6.96745C1.66699 6.73411 1.85033 6.55078 2.08366 6.55078H17.917C18.1503 6.55078 18.3337 6.73411 18.3337 6.96745Z" fill="#292D32"/>
</svg>
