<svg width="24" height="27" viewBox="0 0 24 27" fill="none" xmlns="http://www.w3.org/2000/svg">
<path d="M12 0C9.62663 0 7.30655 0.779873 5.33316 2.241C3.35977 3.70212 1.8217 5.77888 0.913451 8.20864C0.00519937 10.6384 -0.232441 13.312 0.230582 15.8915C0.693605 18.4709 1.83649 20.8402 3.51472 22.6999C5.19295 24.5596 7.33115 25.826 9.65892 26.3391C11.9867 26.8522 14.3995 26.5888 16.5922 25.5824C18.7849 24.5759 20.6591 22.8716 21.9776 20.6849C23.2962 18.4981 24 15.9273 24 13.2973C23.9963 9.77188 22.7309 6.39202 20.4812 3.89917C18.2316 1.40633 15.1815 0.00406076 12 0ZM22.1538 13.2973C22.1546 14.3349 22.0253 15.3677 21.7696 16.3659H17.3262C17.6092 14.3322 17.6092 12.2624 17.3262 10.2287H21.7696C22.0253 11.2269 22.1546 12.2596 22.1538 13.2973ZM9 18.4116H15C14.4089 20.5579 13.3827 22.5259 12 24.1653C10.6178 22.5255 9.59171 20.5576 9 18.4116ZM8.55 16.3659C8.23309 14.3352 8.23309 12.2594 8.55 10.2287H15.4592C15.7761 12.2594 15.7761 14.3352 15.4592 16.3659H8.55ZM1.84616 13.2973C1.84536 12.2596 1.97467 11.2269 2.23039 10.2287H6.67385C6.39077 12.2624 6.39077 14.3322 6.67385 16.3659H2.23039C1.97467 15.3677 1.84536 14.3349 1.84616 13.2973ZM15 8.18295H9C9.59111 6.03673 10.6173 4.06869 12 2.42931C13.3822 4.06913 14.4083 6.03702 15 8.18295ZM21.0381 8.18295H16.9281C16.4101 6.077 15.537 4.09873 14.355 2.3526C15.7831 2.73276 17.1202 3.45062 18.2745 4.45697C19.4288 5.46332 20.3731 6.73435 21.0427 8.18295H21.0381ZM9.645 2.3526C8.463 4.09873 7.58994 6.077 7.07193 8.18295H2.95731C3.62686 6.73435 4.57116 5.46332 5.72549 4.45697C6.87982 3.45062 8.21688 2.73276 9.645 2.3526ZM2.95731 18.4116H7.07193C7.58994 20.5176 8.463 22.4959 9.645 24.242C8.21688 23.8618 6.87982 23.144 5.72549 22.1376C4.57116 21.1313 3.62686 19.8602 2.95731 18.4116ZM14.355 24.242C15.537 22.4959 16.4101 20.5176 16.9281 18.4116H21.0427C20.3731 19.8602 19.4288 21.1313 18.2745 22.1376C17.1202 23.144 15.7831 23.8618 14.355 24.242Z" fill="#E9981B"/>
</svg>
