<svg width="24" height="24" viewBox="0 0 24 24" fill="none" xmlns="http://www.w3.org/2000/svg">
<path d="M12 0C8.73784 0 8.33129 0.015752 7.05463 0.0697587C5.77272 0.132767 4.90561 0.331541 4.14052 0.628579C3.35142 0.937617 2.67933 1.34792 2.0155 2.0155C1.34717 2.67934 0.933117 3.35142 0.628579 4.14052C0.331541 4.90561 0.132767 5.77272 0.0697587 7.05463C0.0120015 8.33204 0 8.73784 0 12C0 15.2622 0.015752 15.6687 0.0697587 16.9454C0.132767 18.2235 0.331541 19.0944 0.628579 19.8595C0.937617 20.6486 1.34792 21.3207 2.0155 21.9845C2.67933 22.6528 3.35142 23.0669 4.14052 23.3714C4.90561 23.6647 5.77647 23.8672 7.05463 23.9302C8.33204 23.988 8.73784 24 12 24C15.2622 24 15.6687 23.9842 16.9454 23.9302C18.2235 23.8672 19.0944 23.664 19.8595 23.3714C20.6486 23.0624 21.3207 22.6521 21.9845 21.9845C22.6528 21.3207 23.0669 20.6523 23.3714 19.8595C23.6647 19.0944 23.8672 18.2235 23.9302 16.9454C23.988 15.668 24 15.2622 24 12C24 8.73784 23.9842 8.33129 23.9302 7.05463C23.8672 5.77647 23.664 4.90111 23.3714 4.14052C23.0624 3.35142 22.6521 2.67934 21.9845 2.0155C21.3207 1.34717 20.6523 0.933117 19.8595 0.628579C19.0944 0.331541 18.2235 0.132767 16.9454 0.0697587C15.668 0.0120015 15.2622 0 12 0ZM12 2.16027C15.2037 2.16027 15.5862 2.17602 16.8524 2.23003C18.0203 2.28479 18.6563 2.47981 19.0786 2.64483C19.642 2.86311 20.0358 3.12114 20.4618 3.54269C20.8796 3.9605 21.1376 4.3588 21.3559 4.92212C21.5209 5.34442 21.716 5.9805 21.7707 7.14839C21.8247 8.41455 21.8405 8.79785 21.8405 12.0008C21.8405 15.2037 21.8247 15.587 21.7662 16.8531C21.7032 18.021 21.5082 18.6571 21.3439 19.0794C21.1166 19.6427 20.8631 20.0365 20.4446 20.4626C20.0223 20.8804 19.6202 21.1384 19.0614 21.3567C18.6443 21.5217 17.9993 21.7167 16.8269 21.7715C15.5539 21.8255 15.1789 21.8412 11.967 21.8412C8.7551 21.8412 8.3808 21.8255 7.10639 21.767C5.93849 21.704 5.29416 21.5089 4.87186 21.3447C4.30179 21.1174 3.91099 20.8639 3.49244 20.4453C3.07013 20.023 2.8016 19.621 2.59457 19.0621C2.42655 18.6451 2.23453 18 2.17227 16.8276C2.12952 15.5697 2.10926 15.1796 2.10926 11.9827C2.10926 8.78735 2.12952 8.39655 2.17227 7.12289C2.23453 5.95049 2.42655 5.30691 2.59457 4.88836C2.8016 4.31754 3.07088 3.92749 3.49244 3.50519C3.91024 3.08739 4.30179 2.81735 4.87186 2.60583C5.29416 2.44156 5.92274 2.24653 7.09514 2.18802C8.36805 2.14227 8.74309 2.12577 11.9505 2.12577L12 2.16027ZM12 5.84098C8.59383 5.84098 5.83948 8.59908 5.83948 12.0015C5.83948 15.4077 8.59758 18.162 12 18.162C15.4062 18.162 18.1605 15.4039 18.1605 12.0015C18.1605 8.59533 15.4024 5.84098 12 5.84098ZM12 16.0018C9.78872 16.0018 7.99975 14.2128 7.99975 12.0015C7.99975 9.79022 9.78872 8.00125 12 8.00125C14.2113 8.00125 16.0002 9.79022 16.0002 12.0015C16.0002 14.2128 14.2113 16.0018 12 16.0018ZM19.849 5.59495C19.849 6.3923 19.2002 7.03588 18.4066 7.03588C17.6092 7.03588 16.9656 6.39155 16.9656 5.59495C16.9656 4.8021 17.6137 4.15702 18.4066 4.15702C19.1994 4.15702 19.849 4.8021 19.849 5.59495Z" fill="#E9981B"/>
</svg>
