<svg width="24" height="24" viewBox="0 0 24 24" fill="none" xmlns="http://www.w3.org/2000/svg">
<path d="M12 24C18.6274 24 24 18.6274 24 12C24 5.37258 18.6274 0 12 0C5.37258 0 0 5.37258 0 12C0 18.6274 5.37258 24 12 24Z" fill="#E9981B"/>
<path d="M17.3992 7.7998H7.19922V13.1998H4.19922V13.7998H7.19922V16.1998H7.79922V13.7998L17.452 13.795C17.4754 13.7908 19.7992 13.345 19.7992 10.7998C19.7992 8.2546 17.4754 7.8088 17.3992 7.7998ZM17.3992 13.1998H7.79922V8.3998L17.3452 8.395C17.4208 8.4088 19.1992 8.764 19.1992 10.7998C19.1992 12.8362 17.4208 13.1902 17.3992 13.1998Z" fill="white"/>
</svg>
