<svg width="32" height="24" viewBox="0 0 32 24" fill="none" xmlns="http://www.w3.org/2000/svg">
<path d="M31.19 4.02546C31.0554 3.52275 30.7975 3.0578 30.4376 2.66896C30.0777 2.28012 29.6261 1.97854 29.12 1.7891C24.2229 -0.0163585 16.4286 5.18717e-06 16 5.18717e-06C15.5714 5.18717e-06 7.77714 -0.0163585 2.88 1.7891C2.37395 1.97854 1.92233 2.28012 1.56242 2.66896C1.20251 3.0578 0.944608 3.52275 0.81 4.02546C0.44 5.38637 0 7.87364 0 12C0 16.1264 0.44 18.6136 0.81 19.9745C0.944407 20.4775 1.20221 20.9427 1.56214 21.3318C1.92207 21.7209 2.37378 22.0227 2.88 22.2123C7.57143 23.94 14.9143 24 15.9057 24H16.0943C17.0857 24 24.4329 23.94 29.12 22.2123C29.6262 22.0227 30.0779 21.7209 30.4379 21.3318C30.7978 20.9427 31.0556 20.4775 31.19 19.9745C31.56 18.6109 32 16.1264 32 12C32 7.87364 31.56 5.38637 31.19 4.02546ZM20.8886 12.4541L14.0314 16.8177C13.9454 16.8725 13.8453 16.904 13.7419 16.9088C13.6386 16.9136 13.5358 16.8915 13.4446 16.8449C13.3534 16.7982 13.2771 16.7289 13.224 16.6441C13.1708 16.5594 13.1428 16.4624 13.1429 16.3636V7.63637C13.1428 7.53759 13.1708 7.44066 13.224 7.3559C13.2771 7.27115 13.3534 7.20176 13.4446 7.15514C13.5358 7.10852 13.6386 7.08642 13.7419 7.0912C13.8453 7.09598 13.9454 7.12746 14.0314 7.18228L20.8886 11.5459C20.967 11.5957 21.0312 11.6632 21.0757 11.7424C21.1201 11.8217 21.1434 11.9101 21.1434 12C21.1434 12.0899 21.1201 12.1784 21.0757 12.2576C21.0312 12.3368 20.967 12.4043 20.8886 12.4541Z" fill="#E9981B"/>
</svg>
